<?xml version="1.0" encoding="UTF-8" standalone="no"?><svg xmlns="http://www.w3.org/2000/svg" xmlns:xlink="http://www.w3.org/1999/xlink" contentScriptType="application/ecmascript" contentStyleType="text/css" height="239px" preserveAspectRatio="none" style="width:479px;height:239px;" version="1.1" viewBox="0 0 479 239" width="479px" zoomAndPan="magnify"><defs><filter height="300%" id="flwac7kuaypfe" width="300%" x="-1" y="-1"><feGaussianBlur result="blurOut" stdDeviation="2.0"/><feColorMatrix in="blurOut" result="blurOut2" type="matrix" values="0 0 0 0 0 0 0 0 0 0 0 0 0 0 0 0 0 0 .4 0"/><feOffset dx="4.0" dy="4.0" in="blurOut2" result="blurOut3"/><feBlend in="SourceGraphic" in2="blurOut3" mode="normal"/></filter></defs><g><!--MD5=[ed0c63156f1c728f406b106d88d9af45]
class Canard--><a href="java:org.blagnac.cpoa.Canard" target="_top" title="java:org.blagnac.cpoa.Canard" xlink:actuate="onRequest" xlink:href="java:org.blagnac.cpoa.Canard" xlink:show="new" xlink:title="java:org.blagnac.cpoa.Canard" xlink:type="simple"><rect fill="#FEFECE" filter="url(#flwac7kuaypfe)" height="86.8652" id="Canard" style="stroke: #A80036; stroke-width: 1.5;" width="118" x="162" y="8"/><ellipse cx="196.8" cy="24" fill="#ADD1B2" rx="11" ry="11" style="stroke: #A80036; stroke-width: 1.0;"/><path d="M199.2731,30.1431 Q198.6921,30.4419 198.0529,30.5913 Q197.4138,30.7407 196.7082,30.7407 Q194.2014,30.7407 192.8815,29.0889 Q191.5617,27.437 191.5617,24.3159 Q191.5617,21.1865 192.8815,19.5347 Q194.2014,17.8828 196.7082,17.8828 Q197.4138,17.8828 198.0612,18.0322 Q198.7087,18.1816 199.2731,18.4805 L199.2731,21.2031 Q198.6423,20.6221 198.0488,20.3523 Q197.4553,20.0825 196.8244,20.0825 Q195.4797,20.0825 194.7949,21.1492 Q194.1101,22.2158 194.1101,24.3159 Q194.1101,26.4077 194.7949,27.4744 Q195.4797,28.541 196.8244,28.541 Q197.4553,28.541 198.0488,28.2712 Q198.6423,28.0015 199.2731,27.4204 Z "/><text fill="#000000" font-family="sans-serif" font-size="12" lengthAdjust="spacingAndGlyphs" textLength="42" x="215.2" y="28.5352">Canard</text><line style="stroke: #A80036; stroke-width: 1.5;" x1="163" x2="279" y1="40" y2="40"/><line style="stroke: #A80036; stroke-width: 1.5;" x1="163" x2="279" y1="48" y2="48"/><ellipse cx="173" cy="59" fill="#84BE84" rx="3" ry="3" style="stroke: #038048; stroke-width: 1.0;"/><text fill="#000000" font-family="sans-serif" font-size="11" lengthAdjust="spacingAndGlyphs" textLength="92" x="182" y="62.6348">String cancaner()</text><ellipse cx="173" cy="71.9551" fill="#84BE84" rx="3" ry="3" style="stroke: #038048; stroke-width: 1.0;"/><text fill="#000000" font-family="sans-serif" font-size="11" lengthAdjust="spacingAndGlyphs" textLength="74" x="182" y="75.5898">String nager()</text><ellipse cx="173" cy="84.9102" fill="#84BE84" rx="3" ry="3" style="stroke: #038048; stroke-width: 1.0;"/><text fill="#000000" font-family="sans-serif" font-size="11" font-style="italic" lengthAdjust="spacingAndGlyphs" textLength="84" x="182" y="88.5449">String afficher()</text></a><!--MD5=[6aadc5b7719e054ab02810ef317c56ff]
class Colvert--><a href="java:org.blagnac.cpoa.Colvert" target="_top" title="java:org.blagnac.cpoa.Colvert" xlink:actuate="onRequest" xlink:href="java:org.blagnac.cpoa.Colvert" xlink:show="new" xlink:title="java:org.blagnac.cpoa.Colvert" xlink:type="simple"><rect fill="#FEFECE" filter="url(#flwac7kuaypfe)" height="60.9551" id="Colvert" style="stroke: #A80036; stroke-width: 1.5;" width="110" x="6" y="161.5"/><ellipse cx="38.1" cy="177.5" fill="#ADD1B2" rx="11" ry="11" style="stroke: #A80036; stroke-width: 1.0;"/><path d="M40.5731,183.6431 Q39.9921,183.9419 39.3529,184.0913 Q38.7138,184.2407 38.0082,184.2407 Q35.5014,184.2407 34.1815,182.5889 Q32.8617,180.937 32.8617,177.8159 Q32.8617,174.6865 34.1815,173.0347 Q35.5014,171.3828 38.0082,171.3828 Q38.7138,171.3828 39.3612,171.5322 Q40.0087,171.6816 40.5731,171.9805 L40.5731,174.7031 Q39.9423,174.1221 39.3488,173.8523 Q38.7553,173.5825 38.1244,173.5825 Q36.7797,173.5825 36.0949,174.6492 Q35.4101,175.7158 35.4101,177.8159 Q35.4101,179.9077 36.0949,180.9744 Q36.7797,182.041 38.1244,182.041 Q38.7553,182.041 39.3488,181.7712 Q39.9423,181.5015 40.5731,180.9204 Z "/><text fill="#000000" font-family="sans-serif" font-size="12" lengthAdjust="spacingAndGlyphs" textLength="40" x="55.9" y="182.0352">Colvert</text><line style="stroke: #A80036; stroke-width: 1.5;" x1="7" x2="115" y1="193.5" y2="193.5"/><line style="stroke: #A80036; stroke-width: 1.5;" x1="7" x2="115" y1="201.5" y2="201.5"/><ellipse cx="17" cy="212.5" fill="#84BE84" rx="3" ry="3" style="stroke: #038048; stroke-width: 1.0;"/><text fill="#000000" font-family="sans-serif" font-size="11" lengthAdjust="spacingAndGlyphs" textLength="84" x="26" y="216.1348">String afficher()</text></a><!--MD5=[2efcf89217524501dea0389016388298]
class SuperCanard--><a href="java:org.blagnac.cpoa.SuperCanard" target="_top" title="java:org.blagnac.cpoa.SuperCanard" xlink:actuate="onRequest" xlink:href="java:org.blagnac.cpoa.SuperCanard" xlink:show="new" xlink:title="java:org.blagnac.cpoa.SuperCanard" xlink:type="simple"><rect fill="#FEFECE" filter="url(#flwac7kuaypfe)" height="60.9551" id="SuperCanard" style="stroke: #A80036; stroke-width: 1.5;" width="153" x="315.5" y="21"/><ellipse cx="351.2" cy="37" fill="#ADD1B2" rx="11" ry="11" style="stroke: #A80036; stroke-width: 1.0;"/><path d="M353.6731,43.1431 Q353.0921,43.4419 352.4529,43.5913 Q351.8138,43.7407 351.1082,43.7407 Q348.6014,43.7407 347.2815,42.0889 Q345.9617,40.437 345.9617,37.3159 Q345.9617,34.1865 347.2815,32.5347 Q348.6014,30.8828 351.1082,30.8828 Q351.8138,30.8828 352.4612,31.0322 Q353.1087,31.1816 353.6731,31.4805 L353.6731,34.2031 Q353.0423,33.6221 352.4488,33.3523 Q351.8553,33.0825 351.2244,33.0825 Q349.8797,33.0825 349.1949,34.1492 Q348.5101,35.2158 348.5101,37.3159 Q348.5101,39.4077 349.1949,40.4744 Q349.8797,41.541 351.2244,41.541 Q351.8553,41.541 352.4488,41.2712 Q353.0423,41.0015 353.6731,40.4204 Z "/><text fill="#000000" font-family="sans-serif" font-size="12" lengthAdjust="spacingAndGlyphs" textLength="75" x="369.8" y="41.5352">SuperCanard</text><line style="stroke: #A80036; stroke-width: 1.5;" x1="316.5" x2="467.5" y1="53" y2="53"/><line style="stroke: #A80036; stroke-width: 1.5;" x1="316.5" x2="467.5" y1="61" y2="61"/><ellipse cx="326.5" cy="72" fill="#84BE84" rx="3" ry="3" style="stroke: #038048; stroke-width: 1.0;"/><text fill="#000000" font-family="sans-serif" font-size="11" lengthAdjust="spacingAndGlyphs" text-decoration="underline" textLength="127" x="335.5" y="75.6348">void main(String[] args)</text></a><!--MD5=[640624e924bb6500302b5140e4a7de10]
class CanardEnPlastique--><a href="java:org.blagnac.cpoa.CanardEnPlastique" target="_top" title="java:org.blagnac.cpoa.CanardEnPlastique" xlink:actuate="onRequest" xlink:href="java:org.blagnac.cpoa.CanardEnPlastique" xlink:show="new" xlink:title="java:org.blagnac.cpoa.CanardEnPlastique" xlink:type="simple"><rect fill="#FEFECE" filter="url(#flwac7kuaypfe)" height="73.9102" id="CanardEnPlastique" style="stroke: #A80036; stroke-width: 1.5;" width="140" x="151" y="155"/><ellipse cx="166" cy="171" fill="#ADD1B2" rx="11" ry="11" style="stroke: #A80036; stroke-width: 1.0;"/><path d="M168.4731,177.1431 Q167.8921,177.4419 167.2529,177.5913 Q166.6138,177.7407 165.9082,177.7407 Q163.4014,177.7407 162.0815,176.0889 Q160.7617,174.437 160.7617,171.3159 Q160.7617,168.1865 162.0815,166.5347 Q163.4014,164.8828 165.9082,164.8828 Q166.6138,164.8828 167.2612,165.0322 Q167.9087,165.1816 168.4731,165.4805 L168.4731,168.2031 Q167.8423,167.6221 167.2488,167.3523 Q166.6553,167.0825 166.0244,167.0825 Q164.6797,167.0825 163.9949,168.1492 Q163.3101,169.2158 163.3101,171.3159 Q163.3101,173.4077 163.9949,174.4744 Q164.6797,175.541 166.0244,175.541 Q166.6553,175.541 167.2488,175.2712 Q167.8423,175.0015 168.4731,174.4204 Z "/><text fill="#000000" font-family="sans-serif" font-size="12" lengthAdjust="spacingAndGlyphs" textLength="108" x="180" y="175.5352">CanardEnPlastique</text><line style="stroke: #A80036; stroke-width: 1.5;" x1="152" x2="290" y1="187" y2="187"/><line style="stroke: #A80036; stroke-width: 1.5;" x1="152" x2="290" y1="195" y2="195"/><ellipse cx="162" cy="206" fill="#84BE84" rx="3" ry="3" style="stroke: #038048; stroke-width: 1.0;"/><text fill="#000000" font-family="sans-serif" font-size="11" lengthAdjust="spacingAndGlyphs" textLength="84" x="171" y="209.6348">String afficher()</text><ellipse cx="162" cy="218.9551" fill="#84BE84" rx="3" ry="3" style="stroke: #038048; stroke-width: 1.0;"/><text fill="#000000" font-family="sans-serif" font-size="11" lengthAdjust="spacingAndGlyphs" textLength="70" x="171" y="222.5898">String voler()</text></a><!--MD5=[e551c43ddeaca69aba01c3c259800a34]
class Mandarin--><a href="java:org.blagnac.cpoa.Mandarin" target="_top" title="java:org.blagnac.cpoa.Mandarin" xlink:actuate="onRequest" xlink:href="java:org.blagnac.cpoa.Mandarin" xlink:show="new" xlink:title="java:org.blagnac.cpoa.Mandarin" xlink:type="simple"><rect fill="#FEFECE" filter="url(#flwac7kuaypfe)" height="60.9551" id="Mandarin" style="stroke: #A80036; stroke-width: 1.5;" width="110" x="326" y="161.5"/><ellipse cx="351.8" cy="177.5" fill="#ADD1B2" rx="11" ry="11" style="stroke: #A80036; stroke-width: 1.0;"/><path d="M354.2731,183.6431 Q353.6921,183.9419 353.0529,184.0913 Q352.4138,184.2407 351.7082,184.2407 Q349.2014,184.2407 347.8815,182.5889 Q346.5617,180.937 346.5617,177.8159 Q346.5617,174.6865 347.8815,173.0347 Q349.2014,171.3828 351.7082,171.3828 Q352.4138,171.3828 353.0612,171.5322 Q353.7087,171.6816 354.2731,171.9805 L354.2731,174.7031 Q353.6423,174.1221 353.0488,173.8523 Q352.4553,173.5825 351.8244,173.5825 Q350.4797,173.5825 349.7949,174.6492 Q349.1101,175.7158 349.1101,177.8159 Q349.1101,179.9077 349.7949,180.9744 Q350.4797,182.041 351.8244,182.041 Q352.4553,182.041 353.0488,181.7712 Q353.6423,181.5015 354.2731,180.9204 Z "/><text fill="#000000" font-family="sans-serif" font-size="12" lengthAdjust="spacingAndGlyphs" textLength="54" x="368.2" y="182.0352">Mandarin</text><line style="stroke: #A80036; stroke-width: 1.5;" x1="327" x2="435" y1="193.5" y2="193.5"/><line style="stroke: #A80036; stroke-width: 1.5;" x1="327" x2="435" y1="201.5" y2="201.5"/><ellipse cx="337" cy="212.5" fill="#84BE84" rx="3" ry="3" style="stroke: #038048; stroke-width: 1.0;"/><text fill="#000000" font-family="sans-serif" font-size="11" lengthAdjust="spacingAndGlyphs" textLength="84" x="346" y="216.1348">String afficher()</text></a><!--MD5=[bfd6c37e7992d2ecfcd701d9418aae25]
reverse link Canard to Colvert--><path d="M156.41,108.41 C135.46,126.55 113.03,145.96 95.19,161.4 " fill="none" id="Canard&lt;-Colvert" style="stroke: #A80036; stroke-width: 1.0;"/><polygon fill="none" points="151.99,102.98,171.69,95.18,161.15,113.57,151.99,102.98" style="stroke: #A80036; stroke-width: 1.0;"/><!--MD5=[ad51a6d171e6672355113b44adc2b4d7]
reverse link Canard to CanardEnPlastique--><path d="M221,115.21 C221,128.76 221,142.64 221,154.76 " fill="none" id="Canard&lt;-CanardEnPlastique" style="stroke: #A80036; stroke-width: 1.0;"/><polygon fill="none" points="214,115.18,221,95.18,228,115.18,214,115.18" style="stroke: #A80036; stroke-width: 1.0;"/><!--MD5=[47f6b827752a63e804fa76586bec03ea]
reverse link Canard to Mandarin--><path d="M285.59,108.41 C306.54,126.55 328.97,145.96 346.81,161.4 " fill="none" id="Canard&lt;-Mandarin" style="stroke: #A80036; stroke-width: 1.0;"/><polygon fill="none" points="280.85,113.57,270.31,95.18,290.01,102.98,280.85,113.57" style="stroke: #A80036; stroke-width: 1.0;"/><!--MD5=[56c6776e8c46e029731d6573861bd50e]
@startuml
abstract class Canard [[java:org.blagnac.cpoa.Canard]] {
	+String cancaner()
	+String nager()
	+{abstract}String afficher()
}
class Colvert [[java:org.blagnac.cpoa.Colvert]] {
	+String afficher()
}
class Canard [[java:org.blagnac.cpoa.Canard]] {
}
Canard <|- - Colvert
class SuperCanard [[java:org.blagnac.cpoa.SuperCanard]] {
	+{static}void main(String[] args)
}
class CanardEnPlastique [[java:org.blagnac.cpoa.CanardEnPlastique]] {
	+String afficher()
	+String voler()
}
class Canard [[java:org.blagnac.cpoa.Canard]] {
}
Canard <|- - CanardEnPlastique
class Mandarin [[java:org.blagnac.cpoa.Mandarin]] {
	+String afficher()
}
class Canard [[java:org.blagnac.cpoa.Canard]] {
}
Canard <|- - Mandarin

@enduml

PlantUML version 1.2019.11(Sun Sep 22 12:02:15 CEST 2019)
(EPL source distribution)
Java Runtime: Java(TM) SE Runtime Environment
JVM: Java HotSpot(TM) 64-Bit Server VM
Java Version: 15+36-1562
Operating System: Mac OS X
Default Encoding: UTF-8
Language: fr
Country: FR
--></g></svg>