<?xml version="1.0" encoding="UTF-8" standalone="no"?><svg xmlns="http://www.w3.org/2000/svg" xmlns:xlink="http://www.w3.org/1999/xlink" contentScriptType="application/ecmascript" contentStyleType="text/css" height="239px" preserveAspectRatio="none" style="width:479px;height:239px;" version="1.1" viewBox="0 0 479 239" width="479px" zoomAndPan="magnify"><defs><filter height="300%" id="f3qjg4eck4gvu" width="300%" x="-1" y="-1"><feGaussianBlur result="blurOut" stdDeviation="2.0"/><feColorMatrix in="blurOut" result="blurOut2" type="matrix" values="0 0 0 0 0 0 0 0 0 0 0 0 0 0 0 0 0 0 .4 0"/><feOffset dx="4.0" dy="4.0" in="blurOut2" result="blurOut3"/><feBlend in="SourceGraphic" in2="blurOut3" mode="normal"/></filter></defs><g><!--MD5=[ed0c63156f1c728f406b106d88d9af45]
class Canard--><a href="java:org.blagnac.cpoa.Canard" target="_top" title="java:org.blagnac.cpoa.Canard" xlink:actuate="onRequest" xlink:href="java:org.blagnac.cpoa.Canard" xlink:show="new" xlink:title="java:org.blagnac.cpoa.Canard" xlink:type="simple"><rect fill="#FEFECE" filter="url(#f3qjg4eck4gvu)" height="99.8203" id="Canard" style="stroke: #A80036; stroke-width: 1.5;" width="118" x="162" y="8"/><ellipse cx="196.8" cy="24" fill="#ADD1B2" rx="11" ry="11" style="stroke: #A80036; stroke-width: 1.0;"/><path d="M199.2731,30.1431 Q198.6921,30.4419 198.0529,30.5913 Q197.4138,30.7407 196.7082,30.7407 Q194.2014,30.7407 192.8815,29.0889 Q191.5617,27.437 191.5617,24.3159 Q191.5617,21.1865 192.8815,19.5347 Q194.2014,17.8828 196.7082,17.8828 Q197.4138,17.8828 198.0612,18.0322 Q198.7087,18.1816 199.2731,18.4805 L199.2731,21.2031 Q198.6423,20.6221 198.0488,20.3523 Q197.4553,20.0825 196.8244,20.0825 Q195.4797,20.0825 194.7949,21.1492 Q194.1101,22.2158 194.1101,24.3159 Q194.1101,26.4077 194.7949,27.4744 Q195.4797,28.541 196.8244,28.541 Q197.4553,28.541 198.0488,28.2712 Q198.6423,28.0015 199.2731,27.4204 Z "/><text fill="#000000" font-family="sans-serif" font-size="12" lengthAdjust="spacingAndGlyphs" textLength="42" x="215.2" y="28.5352">Canard</text><line style="stroke: #A80036; stroke-width: 1.5;" x1="163" x2="279" y1="40" y2="40"/><line style="stroke: #A80036; stroke-width: 1.5;" x1="163" x2="279" y1="48" y2="48"/><ellipse cx="173" cy="59" fill="#84BE84" rx="3" ry="3" style="stroke: #038048; stroke-width: 1.0;"/><text fill="#000000" font-family="sans-serif" font-size="11" lengthAdjust="spacingAndGlyphs" textLength="92" x="182" y="62.6348">String cancaner()</text><ellipse cx="173" cy="71.9551" fill="#84BE84" rx="3" ry="3" style="stroke: #038048; stroke-width: 1.0;"/><text fill="#000000" font-family="sans-serif" font-size="11" lengthAdjust="spacingAndGlyphs" textLength="74" x="182" y="75.5898">String nager()</text><ellipse cx="173" cy="84.9102" fill="#84BE84" rx="3" ry="3" style="stroke: #038048; stroke-width: 1.0;"/><text fill="#000000" font-family="sans-serif" font-size="11" lengthAdjust="spacingAndGlyphs" textLength="70" x="182" y="88.5449">String voler()</text><ellipse cx="173" cy="97.8652" fill="#84BE84" rx="3" ry="3" style="stroke: #038048; stroke-width: 1.0;"/><text fill="#000000" font-family="sans-serif" font-size="11" font-style="italic" lengthAdjust="spacingAndGlyphs" textLength="84" x="182" y="101.5">String afficher()</text></a><!--MD5=[6aadc5b7719e054ab02810ef317c56ff]
class Colvert--><a href="java:org.blagnac.cpoa.Colvert" target="_top" title="java:org.blagnac.cpoa.Colvert" xlink:actuate="onRequest" xlink:href="java:org.blagnac.cpoa.Colvert" xlink:show="new" xlink:title="java:org.blagnac.cpoa.Colvert" xlink:type="simple"><rect fill="#FEFECE" filter="url(#f3qjg4eck4gvu)" height="60.9551" id="Colvert" style="stroke: #A80036; stroke-width: 1.5;" width="110" x="6" y="168"/><ellipse cx="38.1" cy="184" fill="#ADD1B2" rx="11" ry="11" style="stroke: #A80036; stroke-width: 1.0;"/><path d="M40.5731,190.1431 Q39.9921,190.4419 39.3529,190.5913 Q38.7138,190.7407 38.0082,190.7407 Q35.5014,190.7407 34.1815,189.0889 Q32.8617,187.437 32.8617,184.3159 Q32.8617,181.1865 34.1815,179.5347 Q35.5014,177.8828 38.0082,177.8828 Q38.7138,177.8828 39.3612,178.0322 Q40.0087,178.1816 40.5731,178.4805 L40.5731,181.2031 Q39.9423,180.6221 39.3488,180.3523 Q38.7553,180.0825 38.1244,180.0825 Q36.7797,180.0825 36.0949,181.1492 Q35.4101,182.2158 35.4101,184.3159 Q35.4101,186.4077 36.0949,187.4744 Q36.7797,188.541 38.1244,188.541 Q38.7553,188.541 39.3488,188.2712 Q39.9423,188.0015 40.5731,187.4204 Z "/><text fill="#000000" font-family="sans-serif" font-size="12" lengthAdjust="spacingAndGlyphs" textLength="40" x="55.9" y="188.5352">Colvert</text><line style="stroke: #A80036; stroke-width: 1.5;" x1="7" x2="115" y1="200" y2="200"/><line style="stroke: #A80036; stroke-width: 1.5;" x1="7" x2="115" y1="208" y2="208"/><ellipse cx="17" cy="219" fill="#84BE84" rx="3" ry="3" style="stroke: #038048; stroke-width: 1.0;"/><text fill="#000000" font-family="sans-serif" font-size="11" lengthAdjust="spacingAndGlyphs" textLength="84" x="26" y="222.6348">String afficher()</text></a><!--MD5=[2efcf89217524501dea0389016388298]
class SuperCanard--><a href="java:org.blagnac.cpoa.SuperCanard" target="_top" title="java:org.blagnac.cpoa.SuperCanard" xlink:actuate="onRequest" xlink:href="java:org.blagnac.cpoa.SuperCanard" xlink:show="new" xlink:title="java:org.blagnac.cpoa.SuperCanard" xlink:type="simple"><rect fill="#FEFECE" filter="url(#f3qjg4eck4gvu)" height="60.9551" id="SuperCanard" style="stroke: #A80036; stroke-width: 1.5;" width="153" x="315.5" y="27.5"/><ellipse cx="351.2" cy="43.5" fill="#ADD1B2" rx="11" ry="11" style="stroke: #A80036; stroke-width: 1.0;"/><path d="M353.6731,49.6431 Q353.0921,49.9419 352.4529,50.0913 Q351.8138,50.2407 351.1082,50.2407 Q348.6014,50.2407 347.2815,48.5889 Q345.9617,46.937 345.9617,43.8159 Q345.9617,40.6865 347.2815,39.0347 Q348.6014,37.3828 351.1082,37.3828 Q351.8138,37.3828 352.4612,37.5322 Q353.1087,37.6816 353.6731,37.9805 L353.6731,40.7031 Q353.0423,40.1221 352.4488,39.8523 Q351.8553,39.5825 351.2244,39.5825 Q349.8797,39.5825 349.1949,40.6492 Q348.5101,41.7158 348.5101,43.8159 Q348.5101,45.9077 349.1949,46.9744 Q349.8797,48.041 351.2244,48.041 Q351.8553,48.041 352.4488,47.7712 Q353.0423,47.5015 353.6731,46.9204 Z "/><text fill="#000000" font-family="sans-serif" font-size="12" lengthAdjust="spacingAndGlyphs" textLength="75" x="369.8" y="48.0352">SuperCanard</text><line style="stroke: #A80036; stroke-width: 1.5;" x1="316.5" x2="467.5" y1="59.5" y2="59.5"/><line style="stroke: #A80036; stroke-width: 1.5;" x1="316.5" x2="467.5" y1="67.5" y2="67.5"/><ellipse cx="326.5" cy="78.5" fill="#84BE84" rx="3" ry="3" style="stroke: #038048; stroke-width: 1.0;"/><text fill="#000000" font-family="sans-serif" font-size="11" lengthAdjust="spacingAndGlyphs" text-decoration="underline" textLength="127" x="335.5" y="82.1348">void main(String[] args)</text></a><!--MD5=[640624e924bb6500302b5140e4a7de10]
class CanardEnPlastique--><a href="java:org.blagnac.cpoa.CanardEnPlastique" target="_top" title="java:org.blagnac.cpoa.CanardEnPlastique" xlink:actuate="onRequest" xlink:href="java:org.blagnac.cpoa.CanardEnPlastique" xlink:show="new" xlink:title="java:org.blagnac.cpoa.CanardEnPlastique" xlink:type="simple"><rect fill="#FEFECE" filter="url(#f3qjg4eck4gvu)" height="60.9551" id="CanardEnPlastique" style="stroke: #A80036; stroke-width: 1.5;" width="140" x="151" y="168"/><ellipse cx="166" cy="184" fill="#ADD1B2" rx="11" ry="11" style="stroke: #A80036; stroke-width: 1.0;"/><path d="M168.4731,190.1431 Q167.8921,190.4419 167.2529,190.5913 Q166.6138,190.7407 165.9082,190.7407 Q163.4014,190.7407 162.0815,189.0889 Q160.7617,187.437 160.7617,184.3159 Q160.7617,181.1865 162.0815,179.5347 Q163.4014,177.8828 165.9082,177.8828 Q166.6138,177.8828 167.2612,178.0322 Q167.9087,178.1816 168.4731,178.4805 L168.4731,181.2031 Q167.8423,180.6221 167.2488,180.3523 Q166.6553,180.0825 166.0244,180.0825 Q164.6797,180.0825 163.9949,181.1492 Q163.3101,182.2158 163.3101,184.3159 Q163.3101,186.4077 163.9949,187.4744 Q164.6797,188.541 166.0244,188.541 Q166.6553,188.541 167.2488,188.2712 Q167.8423,188.0015 168.4731,187.4204 Z "/><text fill="#000000" font-family="sans-serif" font-size="12" lengthAdjust="spacingAndGlyphs" textLength="108" x="180" y="188.5352">CanardEnPlastique</text><line style="stroke: #A80036; stroke-width: 1.5;" x1="152" x2="290" y1="200" y2="200"/><line style="stroke: #A80036; stroke-width: 1.5;" x1="152" x2="290" y1="208" y2="208"/><ellipse cx="162" cy="219" fill="#84BE84" rx="3" ry="3" style="stroke: #038048; stroke-width: 1.0;"/><text fill="#000000" font-family="sans-serif" font-size="11" lengthAdjust="spacingAndGlyphs" textLength="84" x="171" y="222.6348">String afficher()</text></a><!--MD5=[e551c43ddeaca69aba01c3c259800a34]
class Mandarin--><a href="java:org.blagnac.cpoa.Mandarin" target="_top" title="java:org.blagnac.cpoa.Mandarin" xlink:actuate="onRequest" xlink:href="java:org.blagnac.cpoa.Mandarin" xlink:show="new" xlink:title="java:org.blagnac.cpoa.Mandarin" xlink:type="simple"><rect fill="#FEFECE" filter="url(#f3qjg4eck4gvu)" height="60.9551" id="Mandarin" style="stroke: #A80036; stroke-width: 1.5;" width="110" x="326" y="168"/><ellipse cx="351.8" cy="184" fill="#ADD1B2" rx="11" ry="11" style="stroke: #A80036; stroke-width: 1.0;"/><path d="M354.2731,190.1431 Q353.6921,190.4419 353.0529,190.5913 Q352.4138,190.7407 351.7082,190.7407 Q349.2014,190.7407 347.8815,189.0889 Q346.5617,187.437 346.5617,184.3159 Q346.5617,181.1865 347.8815,179.5347 Q349.2014,177.8828 351.7082,177.8828 Q352.4138,177.8828 353.0612,178.0322 Q353.7087,178.1816 354.2731,178.4805 L354.2731,181.2031 Q353.6423,180.6221 353.0488,180.3523 Q352.4553,180.0825 351.8244,180.0825 Q350.4797,180.0825 349.7949,181.1492 Q349.1101,182.2158 349.1101,184.3159 Q349.1101,186.4077 349.7949,187.4744 Q350.4797,188.541 351.8244,188.541 Q352.4553,188.541 353.0488,188.2712 Q353.6423,188.0015 354.2731,187.4204 Z "/><text fill="#000000" font-family="sans-serif" font-size="12" lengthAdjust="spacingAndGlyphs" textLength="54" x="368.2" y="188.5352">Mandarin</text><line style="stroke: #A80036; stroke-width: 1.5;" x1="327" x2="435" y1="200" y2="200"/><line style="stroke: #A80036; stroke-width: 1.5;" x1="327" x2="435" y1="208" y2="208"/><ellipse cx="337" cy="219" fill="#84BE84" rx="3" ry="3" style="stroke: #038048; stroke-width: 1.0;"/><text fill="#000000" font-family="sans-serif" font-size="11" lengthAdjust="spacingAndGlyphs" textLength="84" x="346" y="222.6348">String afficher()</text></a><!--MD5=[bfd6c37e7992d2ecfcd701d9418aae25]
reverse link Canard to Colvert--><path d="M149.02,121.31 C130.33,137.49 111.06,154.17 95.32,167.79 " fill="none" id="Canard&lt;-Colvert" style="stroke: #A80036; stroke-width: 1.0;"/><polygon fill="none" points="144.44,116.02,164.14,108.22,153.6,126.6,144.44,116.02" style="stroke: #A80036; stroke-width: 1.0;"/><!--MD5=[ad51a6d171e6672355113b44adc2b4d7]
reverse link Canard to CanardEnPlastique--><path d="M221,128.33 C221,142.24 221,156.14 221,167.79 " fill="none" id="Canard&lt;-CanardEnPlastique" style="stroke: #A80036; stroke-width: 1.0;"/><polygon fill="none" points="214,128.22,221,108.22,228,128.22,214,128.22" style="stroke: #A80036; stroke-width: 1.0;"/><!--MD5=[47f6b827752a63e804fa76586bec03ea]
reverse link Canard to Mandarin--><path d="M292.98,121.31 C311.67,137.49 330.94,154.17 346.68,167.79 " fill="none" id="Canard&lt;-Mandarin" style="stroke: #A80036; stroke-width: 1.0;"/><polygon fill="none" points="288.4,126.6,277.86,108.22,297.56,116.02,288.4,126.6" style="stroke: #A80036; stroke-width: 1.0;"/><!--MD5=[4287a1f0df0775e50e9e1c6ca10856eb]
@startuml
abstract class Canard [[java:org.blagnac.cpoa.Canard]] {
	+String cancaner()
	+String nager()
	+String voler()
	+{abstract}String afficher()
}
class Colvert [[java:org.blagnac.cpoa.Colvert]] {
	+String afficher()
}
class Canard [[java:org.blagnac.cpoa.Canard]] {
}
Canard <|- - Colvert
class SuperCanard [[java:org.blagnac.cpoa.SuperCanard]] {
	+{static}void main(String[] args)
}
class CanardEnPlastique [[java:org.blagnac.cpoa.CanardEnPlastique]] {
	+String afficher()
}
class Canard [[java:org.blagnac.cpoa.Canard]] {
}
Canard <|- - CanardEnPlastique
class Mandarin [[java:org.blagnac.cpoa.Mandarin]] {
	+String afficher()
}
class Canard [[java:org.blagnac.cpoa.Canard]] {
}
Canard <|- - Mandarin

@enduml

PlantUML version 1.2019.11(Sun Sep 22 12:02:15 CEST 2019)
(EPL source distribution)
Java Runtime: Java(TM) SE Runtime Environment
JVM: Java HotSpot(TM) 64-Bit Server VM
Java Version: 15+36-1562
Operating System: Mac OS X
Default Encoding: UTF-8
Language: fr
Country: FR
--></g></svg>