<?xml version="1.0" encoding="UTF-8" standalone="no"?><svg xmlns="http://www.w3.org/2000/svg" xmlns:xlink="http://www.w3.org/1999/xlink" contentScriptType="application/ecmascript" contentStyleType="text/css" height="391px" preserveAspectRatio="none" style="width:937px;height:391px;" version="1.1" viewBox="0 0 937 391" width="937px" zoomAndPan="magnify"><defs><filter height="300%" id="fq577zivzpjvh" width="300%" x="-1" y="-1"><feGaussianBlur result="blurOut" stdDeviation="2.0"/><feColorMatrix in="blurOut" result="blurOut2" type="matrix" values="0 0 0 0 0 0 0 0 0 0 0 0 0 0 0 0 0 0 .4 0"/><feOffset dx="4.0" dy="4.0" in="blurOut2" result="blurOut3"/><feBlend in="SourceGraphic" in2="blurOut3" mode="normal"/></filter></defs><g><!--MD5=[ed0c63156f1c728f406b106d88d9af45]
class Canard--><a href="java:org.blagnac.cpoa.Canard" target="_top" title="java:org.blagnac.cpoa.Canard" xlink:actuate="onRequest" xlink:href="java:org.blagnac.cpoa.Canard" xlink:show="new" xlink:title="java:org.blagnac.cpoa.Canard" xlink:type="simple"><rect fill="#FEFECE" filter="url(#fq577zivzpjvh)" height="99.8203" id="Canard" style="stroke: #A80036; stroke-width: 1.5;" width="118" x="492" y="8"/><ellipse cx="526.8" cy="24" fill="#ADD1B2" rx="11" ry="11" style="stroke: #A80036; stroke-width: 1.0;"/><path d="M529.2731,30.1431 Q528.6921,30.4419 528.0529,30.5913 Q527.4138,30.7407 526.7082,30.7407 Q524.2014,30.7407 522.8815,29.0889 Q521.5617,27.437 521.5617,24.3159 Q521.5617,21.1865 522.8815,19.5347 Q524.2014,17.8828 526.7082,17.8828 Q527.4138,17.8828 528.0612,18.0322 Q528.7087,18.1816 529.2731,18.4805 L529.2731,21.2031 Q528.6423,20.6221 528.0488,20.3523 Q527.4553,20.0825 526.8244,20.0825 Q525.4797,20.0825 524.7949,21.1492 Q524.1101,22.2158 524.1101,24.3159 Q524.1101,26.4077 524.7949,27.4744 Q525.4797,28.541 526.8244,28.541 Q527.4553,28.541 528.0488,28.2712 Q528.6423,28.0015 529.2731,27.4204 Z "/><text fill="#000000" font-family="sans-serif" font-size="12" lengthAdjust="spacingAndGlyphs" textLength="42" x="545.2" y="28.5352">Canard</text><line style="stroke: #A80036; stroke-width: 1.5;" x1="493" x2="609" y1="40" y2="40"/><line style="stroke: #A80036; stroke-width: 1.5;" x1="493" x2="609" y1="48" y2="48"/><ellipse cx="503" cy="59" fill="#84BE84" rx="3" ry="3" style="stroke: #038048; stroke-width: 1.0;"/><text fill="#000000" font-family="sans-serif" font-size="11" lengthAdjust="spacingAndGlyphs" textLength="92" x="512" y="62.6348">String cancaner()</text><ellipse cx="503" cy="71.9551" fill="#84BE84" rx="3" ry="3" style="stroke: #038048; stroke-width: 1.0;"/><text fill="#000000" font-family="sans-serif" font-size="11" lengthAdjust="spacingAndGlyphs" textLength="74" x="512" y="75.5898">String nager()</text><ellipse cx="503" cy="84.9102" fill="#84BE84" rx="3" ry="3" style="stroke: #038048; stroke-width: 1.0;"/><text fill="#000000" font-family="sans-serif" font-size="11" font-style="italic" lengthAdjust="spacingAndGlyphs" textLength="84" x="512" y="88.5449">String afficher()</text><ellipse cx="503" cy="97.8652" fill="#84BE84" rx="3" ry="3" style="stroke: #038048; stroke-width: 1.0;"/><text fill="#000000" font-family="sans-serif" font-size="11" lengthAdjust="spacingAndGlyphs" textLength="70" x="512" y="101.5">String voler()</text></a><!--MD5=[4a051ddfd7b415cd11c793f41deb1f2f]
class ComportementVol--><a href="java:org.blagnac.cpoa.ComportementVol" target="_top" title="java:org.blagnac.cpoa.ComportementVol" xlink:actuate="onRequest" xlink:href="java:org.blagnac.cpoa.ComportementVol" xlink:show="new" xlink:title="java:org.blagnac.cpoa.ComportementVol" xlink:type="simple"><rect fill="#FEFECE" filter="url(#fq577zivzpjvh)" height="60.9551" id="ComportementVol" style="stroke: #A80036; stroke-width: 1.5;" width="136" x="130" y="191.5"/><ellipse cx="145" cy="207.5" fill="#B4A7E5" rx="11" ry="11" style="stroke: #A80036; stroke-width: 1.0;"/><path d="M141.4277,203.7651 L141.4277,201.6069 L148.8071,201.6069 L148.8071,203.7651 L146.3418,203.7651 L146.3418,211.8418 L148.8071,211.8418 L148.8071,214 L141.4277,214 L141.4277,211.8418 L143.8931,211.8418 L143.8931,203.7651 Z "/><text fill="#000000" font-family="sans-serif" font-size="12" font-style="italic" lengthAdjust="spacingAndGlyphs" textLength="104" x="159" y="212.0352">ComportementVol</text><line style="stroke: #A80036; stroke-width: 1.5;" x1="131" x2="265" y1="223.5" y2="223.5"/><line style="stroke: #A80036; stroke-width: 1.5;" x1="131" x2="265" y1="231.5" y2="231.5"/><text fill="#000000" font-family="sans-serif" font-size="11" lengthAdjust="spacingAndGlyphs" textLength="70" x="136" y="246.1348">String voler()</text></a><!--MD5=[aca95363a2580d34b7fffd91ec4191e8]
class ComportementCancan--><a href="java:org.blagnac.cpoa.ComportementCancan" target="_top" title="java:org.blagnac.cpoa.ComportementCancan" xlink:actuate="onRequest" xlink:href="java:org.blagnac.cpoa.ComportementCancan" xlink:show="new" xlink:title="java:org.blagnac.cpoa.ComportementCancan" xlink:type="simple"><rect fill="#FEFECE" filter="url(#fq577zivzpjvh)" height="60.9551" id="ComportementCancan" style="stroke: #A80036; stroke-width: 1.5;" width="160" x="301" y="191.5"/><ellipse cx="316" cy="207.5" fill="#B4A7E5" rx="11" ry="11" style="stroke: #A80036; stroke-width: 1.0;"/><path d="M312.4277,203.7651 L312.4277,201.6069 L319.8071,201.6069 L319.8071,203.7651 L317.3418,203.7651 L317.3418,211.8418 L319.8071,211.8418 L319.8071,214 L312.4277,214 L312.4277,211.8418 L314.8931,211.8418 L314.8931,203.7651 Z "/><text fill="#000000" font-family="sans-serif" font-size="12" font-style="italic" lengthAdjust="spacingAndGlyphs" textLength="128" x="330" y="212.0352">ComportementCancan</text><line style="stroke: #A80036; stroke-width: 1.5;" x1="302" x2="460" y1="223.5" y2="223.5"/><line style="stroke: #A80036; stroke-width: 1.5;" x1="302" x2="460" y1="231.5" y2="231.5"/><text fill="#000000" font-family="sans-serif" font-size="11" lengthAdjust="spacingAndGlyphs" textLength="92" x="307" y="246.1348">String cancaner()</text></a><!--MD5=[6aadc5b7719e054ab02810ef317c56ff]
class Colvert--><a href="java:org.blagnac.cpoa.Colvert" target="_top" title="java:org.blagnac.cpoa.Colvert" xlink:actuate="onRequest" xlink:href="java:org.blagnac.cpoa.Colvert" xlink:show="new" xlink:title="java:org.blagnac.cpoa.Colvert" xlink:type="simple"><rect fill="#FEFECE" filter="url(#fq577zivzpjvh)" height="73.9102" id="Colvert" style="stroke: #A80036; stroke-width: 1.5;" width="110" x="496" y="185"/><ellipse cx="528.1" cy="201" fill="#ADD1B2" rx="11" ry="11" style="stroke: #A80036; stroke-width: 1.0;"/><path d="M530.5731,207.1431 Q529.9921,207.4419 529.3529,207.5913 Q528.7138,207.7407 528.0082,207.7407 Q525.5014,207.7407 524.1815,206.0889 Q522.8617,204.437 522.8617,201.3159 Q522.8617,198.1865 524.1815,196.5347 Q525.5014,194.8828 528.0082,194.8828 Q528.7138,194.8828 529.3612,195.0322 Q530.0087,195.1816 530.5731,195.4805 L530.5731,198.2031 Q529.9423,197.6221 529.3488,197.3523 Q528.7553,197.0825 528.1244,197.0825 Q526.7797,197.0825 526.0949,198.1492 Q525.4101,199.2158 525.4101,201.3159 Q525.4101,203.4077 526.0949,204.4744 Q526.7797,205.541 528.1244,205.541 Q528.7553,205.541 529.3488,205.2712 Q529.9423,205.0015 530.5731,204.4204 Z "/><text fill="#000000" font-family="sans-serif" font-size="12" lengthAdjust="spacingAndGlyphs" textLength="40" x="545.9" y="205.5352">Colvert</text><line style="stroke: #A80036; stroke-width: 1.5;" x1="497" x2="605" y1="217" y2="217"/><line style="stroke: #A80036; stroke-width: 1.5;" x1="497" x2="605" y1="225" y2="225"/><ellipse cx="507" cy="236" fill="#84BE84" rx="3" ry="3" style="stroke: #038048; stroke-width: 1.0;"/><text fill="#000000" font-family="sans-serif" font-size="11" lengthAdjust="spacingAndGlyphs" textLength="47" x="516" y="239.6348">Colvert()</text><ellipse cx="507" cy="248.9551" fill="#84BE84" rx="3" ry="3" style="stroke: #038048; stroke-width: 1.0;"/><text fill="#000000" font-family="sans-serif" font-size="11" lengthAdjust="spacingAndGlyphs" textLength="84" x="516" y="252.5898">String afficher()</text></a><!--MD5=[2efcf89217524501dea0389016388298]
class SuperCanard--><a href="java:org.blagnac.cpoa.SuperCanard" target="_top" title="java:org.blagnac.cpoa.SuperCanard" xlink:actuate="onRequest" xlink:href="java:org.blagnac.cpoa.SuperCanard" xlink:show="new" xlink:title="java:org.blagnac.cpoa.SuperCanard" xlink:type="simple"><rect fill="#FEFECE" filter="url(#fq577zivzpjvh)" height="60.9551" id="SuperCanard" style="stroke: #A80036; stroke-width: 1.5;" width="153" x="645.5" y="27.5"/><ellipse cx="681.2" cy="43.5" fill="#ADD1B2" rx="11" ry="11" style="stroke: #A80036; stroke-width: 1.0;"/><path d="M683.6731,49.6431 Q683.0921,49.9419 682.4529,50.0913 Q681.8138,50.2407 681.1082,50.2407 Q678.6014,50.2407 677.2815,48.5889 Q675.9617,46.937 675.9617,43.8159 Q675.9617,40.6865 677.2815,39.0347 Q678.6014,37.3828 681.1082,37.3828 Q681.8138,37.3828 682.4612,37.5322 Q683.1087,37.6816 683.6731,37.9805 L683.6731,40.7031 Q683.0423,40.1221 682.4488,39.8523 Q681.8553,39.5825 681.2244,39.5825 Q679.8797,39.5825 679.1949,40.6492 Q678.5101,41.7158 678.5101,43.8159 Q678.5101,45.9077 679.1949,46.9744 Q679.8797,48.041 681.2244,48.041 Q681.8553,48.041 682.4488,47.7712 Q683.0423,47.5015 683.6731,46.9204 Z "/><text fill="#000000" font-family="sans-serif" font-size="12" lengthAdjust="spacingAndGlyphs" textLength="75" x="699.8" y="48.0352">SuperCanard</text><line style="stroke: #A80036; stroke-width: 1.5;" x1="646.5" x2="797.5" y1="59.5" y2="59.5"/><line style="stroke: #A80036; stroke-width: 1.5;" x1="646.5" x2="797.5" y1="67.5" y2="67.5"/><ellipse cx="656.5" cy="78.5" fill="#84BE84" rx="3" ry="3" style="stroke: #038048; stroke-width: 1.0;"/><text fill="#000000" font-family="sans-serif" font-size="11" lengthAdjust="spacingAndGlyphs" text-decoration="underline" textLength="127" x="665.5" y="82.1348">void main(String[] args)</text></a><!--MD5=[f5a6a62b3b1e0fe4d3183fb2d6526152]
class NePasVoler--><a href="java:org.blagnac.cpoa.NePasVoler" target="_top" title="java:org.blagnac.cpoa.NePasVoler" xlink:actuate="onRequest" xlink:href="java:org.blagnac.cpoa.NePasVoler" xlink:show="new" xlink:title="java:org.blagnac.cpoa.NePasVoler" xlink:type="simple"><rect fill="#FEFECE" filter="url(#fq577zivzpjvh)" height="60.9551" id="NePasVoler" style="stroke: #A80036; stroke-width: 1.5;" width="98" x="6" y="320"/><ellipse cx="21" cy="336" fill="#ADD1B2" rx="11" ry="11" style="stroke: #A80036; stroke-width: 1.0;"/><path d="M23.4731,342.1431 Q22.8921,342.4419 22.2529,342.5913 Q21.6138,342.7407 20.9082,342.7407 Q18.4014,342.7407 17.0815,341.0889 Q15.7617,339.437 15.7617,336.3159 Q15.7617,333.1865 17.0815,331.5347 Q18.4014,329.8828 20.9082,329.8828 Q21.6138,329.8828 22.2612,330.0322 Q22.9087,330.1816 23.4731,330.4805 L23.4731,333.2031 Q22.8423,332.6221 22.2488,332.3523 Q21.6553,332.0825 21.0244,332.0825 Q19.6797,332.0825 18.9949,333.1492 Q18.3101,334.2158 18.3101,336.3159 Q18.3101,338.4077 18.9949,339.4744 Q19.6797,340.541 21.0244,340.541 Q21.6553,340.541 22.2488,340.2712 Q22.8423,340.0015 23.4731,339.4204 Z "/><text fill="#000000" font-family="sans-serif" font-size="12" lengthAdjust="spacingAndGlyphs" textLength="66" x="35" y="340.5352">NePasVoler</text><line style="stroke: #A80036; stroke-width: 1.5;" x1="7" x2="103" y1="352" y2="352"/><line style="stroke: #A80036; stroke-width: 1.5;" x1="7" x2="103" y1="360" y2="360"/><ellipse cx="17" cy="371" fill="#84BE84" rx="3" ry="3" style="stroke: #038048; stroke-width: 1.0;"/><text fill="#000000" font-family="sans-serif" font-size="11" lengthAdjust="spacingAndGlyphs" textLength="70" x="26" y="374.6348">String voler()</text></a><!--MD5=[640624e924bb6500302b5140e4a7de10]
class CanardEnPlastique--><a href="java:org.blagnac.cpoa.CanardEnPlastique" target="_top" title="java:org.blagnac.cpoa.CanardEnPlastique" xlink:actuate="onRequest" xlink:href="java:org.blagnac.cpoa.CanardEnPlastique" xlink:show="new" xlink:title="java:org.blagnac.cpoa.CanardEnPlastique" xlink:type="simple"><rect fill="#FEFECE" filter="url(#fq577zivzpjvh)" height="73.9102" id="CanardEnPlastique" style="stroke: #A80036; stroke-width: 1.5;" width="140" x="641" y="185"/><ellipse cx="656" cy="201" fill="#ADD1B2" rx="11" ry="11" style="stroke: #A80036; stroke-width: 1.0;"/><path d="M658.4731,207.1431 Q657.8921,207.4419 657.2529,207.5913 Q656.6138,207.7407 655.9082,207.7407 Q653.4014,207.7407 652.0815,206.0889 Q650.7617,204.437 650.7617,201.3159 Q650.7617,198.1865 652.0815,196.5347 Q653.4014,194.8828 655.9082,194.8828 Q656.6138,194.8828 657.2612,195.0322 Q657.9087,195.1816 658.4731,195.4805 L658.4731,198.2031 Q657.8423,197.6221 657.2488,197.3523 Q656.6553,197.0825 656.0244,197.0825 Q654.6797,197.0825 653.9949,198.1492 Q653.3101,199.2158 653.3101,201.3159 Q653.3101,203.4077 653.9949,204.4744 Q654.6797,205.541 656.0244,205.541 Q656.6553,205.541 657.2488,205.2712 Q657.8423,205.0015 658.4731,204.4204 Z "/><text fill="#000000" font-family="sans-serif" font-size="12" lengthAdjust="spacingAndGlyphs" textLength="108" x="670" y="205.5352">CanardEnPlastique</text><line style="stroke: #A80036; stroke-width: 1.5;" x1="642" x2="780" y1="217" y2="217"/><line style="stroke: #A80036; stroke-width: 1.5;" x1="642" x2="780" y1="225" y2="225"/><ellipse cx="652" cy="236" fill="#84BE84" rx="3" ry="3" style="stroke: #038048; stroke-width: 1.0;"/><text fill="#000000" font-family="sans-serif" font-size="11" lengthAdjust="spacingAndGlyphs" textLength="108" x="661" y="239.6348">CanardEnPlastique()</text><ellipse cx="652" cy="248.9551" fill="#84BE84" rx="3" ry="3" style="stroke: #038048; stroke-width: 1.0;"/><text fill="#000000" font-family="sans-serif" font-size="11" lengthAdjust="spacingAndGlyphs" textLength="84" x="661" y="252.5898">String afficher()</text></a><!--MD5=[23ec1d3b97f5d62400be78cce871772b]
class Cancan--><a href="java:org.blagnac.cpoa.Cancan" target="_top" title="java:org.blagnac.cpoa.Cancan" xlink:actuate="onRequest" xlink:href="java:org.blagnac.cpoa.Cancan" xlink:show="new" xlink:title="java:org.blagnac.cpoa.Cancan" xlink:type="simple"><rect fill="#FEFECE" filter="url(#fq577zivzpjvh)" height="60.9551" id="Cancan" style="stroke: #A80036; stroke-width: 1.5;" width="118" x="322" y="320"/><ellipse cx="356.8" cy="336" fill="#ADD1B2" rx="11" ry="11" style="stroke: #A80036; stroke-width: 1.0;"/><path d="M359.2731,342.1431 Q358.6921,342.4419 358.0529,342.5913 Q357.4138,342.7407 356.7082,342.7407 Q354.2014,342.7407 352.8815,341.0889 Q351.5617,339.437 351.5617,336.3159 Q351.5617,333.1865 352.8815,331.5347 Q354.2014,329.8828 356.7082,329.8828 Q357.4138,329.8828 358.0612,330.0322 Q358.7087,330.1816 359.2731,330.4805 L359.2731,333.2031 Q358.6423,332.6221 358.0488,332.3523 Q357.4553,332.0825 356.8244,332.0825 Q355.4797,332.0825 354.7949,333.1492 Q354.1101,334.2158 354.1101,336.3159 Q354.1101,338.4077 354.7949,339.4744 Q355.4797,340.541 356.8244,340.541 Q357.4553,340.541 358.0488,340.2712 Q358.6423,340.0015 359.2731,339.4204 Z "/><text fill="#000000" font-family="sans-serif" font-size="12" lengthAdjust="spacingAndGlyphs" textLength="42" x="375.2" y="340.5352">Cancan</text><line style="stroke: #A80036; stroke-width: 1.5;" x1="323" x2="439" y1="352" y2="352"/><line style="stroke: #A80036; stroke-width: 1.5;" x1="323" x2="439" y1="360" y2="360"/><ellipse cx="333" cy="371" fill="#84BE84" rx="3" ry="3" style="stroke: #038048; stroke-width: 1.0;"/><text fill="#000000" font-family="sans-serif" font-size="11" lengthAdjust="spacingAndGlyphs" textLength="92" x="342" y="374.6348">String cancaner()</text></a><!--MD5=[edbc55225fd321a82d696a7e6acfa707]
class VolerAvecDesAiles--><a href="java:org.blagnac.cpoa.VolerAvecDesAiles" target="_top" title="java:org.blagnac.cpoa.VolerAvecDesAiles" xlink:actuate="onRequest" xlink:href="java:org.blagnac.cpoa.VolerAvecDesAiles" xlink:show="new" xlink:title="java:org.blagnac.cpoa.VolerAvecDesAiles" xlink:type="simple"><rect fill="#FEFECE" filter="url(#fq577zivzpjvh)" height="60.9551" id="VolerAvecDesAiles" style="stroke: #A80036; stroke-width: 1.5;" width="138" x="139" y="320"/><ellipse cx="154" cy="336" fill="#ADD1B2" rx="11" ry="11" style="stroke: #A80036; stroke-width: 1.0;"/><path d="M156.4731,342.1431 Q155.8921,342.4419 155.2529,342.5913 Q154.6138,342.7407 153.9082,342.7407 Q151.4014,342.7407 150.0815,341.0889 Q148.7617,339.437 148.7617,336.3159 Q148.7617,333.1865 150.0815,331.5347 Q151.4014,329.8828 153.9082,329.8828 Q154.6138,329.8828 155.2612,330.0322 Q155.9087,330.1816 156.4731,330.4805 L156.4731,333.2031 Q155.8423,332.6221 155.2488,332.3523 Q154.6553,332.0825 154.0244,332.0825 Q152.6797,332.0825 151.9949,333.1492 Q151.3101,334.2158 151.3101,336.3159 Q151.3101,338.4077 151.9949,339.4744 Q152.6797,340.541 154.0244,340.541 Q154.6553,340.541 155.2488,340.2712 Q155.8423,340.0015 156.4731,339.4204 Z "/><text fill="#000000" font-family="sans-serif" font-size="12" lengthAdjust="spacingAndGlyphs" textLength="106" x="168" y="340.5352">VolerAvecDesAiles</text><line style="stroke: #A80036; stroke-width: 1.5;" x1="140" x2="276" y1="352" y2="352"/><line style="stroke: #A80036; stroke-width: 1.5;" x1="140" x2="276" y1="360" y2="360"/><ellipse cx="150" cy="371" fill="#84BE84" rx="3" ry="3" style="stroke: #038048; stroke-width: 1.0;"/><text fill="#000000" font-family="sans-serif" font-size="11" lengthAdjust="spacingAndGlyphs" textLength="70" x="159" y="374.6348">String voler()</text></a><!--MD5=[e551c43ddeaca69aba01c3c259800a34]
class Mandarin--><a href="java:org.blagnac.cpoa.Mandarin" target="_top" title="java:org.blagnac.cpoa.Mandarin" xlink:actuate="onRequest" xlink:href="java:org.blagnac.cpoa.Mandarin" xlink:show="new" xlink:title="java:org.blagnac.cpoa.Mandarin" xlink:type="simple"><rect fill="#FEFECE" filter="url(#fq577zivzpjvh)" height="73.9102" id="Mandarin" style="stroke: #A80036; stroke-width: 1.5;" width="110" x="816" y="185"/><ellipse cx="841.8" cy="201" fill="#ADD1B2" rx="11" ry="11" style="stroke: #A80036; stroke-width: 1.0;"/><path d="M844.2731,207.1431 Q843.6921,207.4419 843.0529,207.5913 Q842.4138,207.7407 841.7082,207.7407 Q839.2014,207.7407 837.8815,206.0889 Q836.5617,204.437 836.5617,201.3159 Q836.5617,198.1865 837.8815,196.5347 Q839.2014,194.8828 841.7082,194.8828 Q842.4138,194.8828 843.0612,195.0322 Q843.7087,195.1816 844.2731,195.4805 L844.2731,198.2031 Q843.6423,197.6221 843.0488,197.3523 Q842.4553,197.0825 841.8244,197.0825 Q840.4797,197.0825 839.7949,198.1492 Q839.1101,199.2158 839.1101,201.3159 Q839.1101,203.4077 839.7949,204.4744 Q840.4797,205.541 841.8244,205.541 Q842.4553,205.541 843.0488,205.2712 Q843.6423,205.0015 844.2731,204.4204 Z "/><text fill="#000000" font-family="sans-serif" font-size="12" lengthAdjust="spacingAndGlyphs" textLength="54" x="858.2" y="205.5352">Mandarin</text><line style="stroke: #A80036; stroke-width: 1.5;" x1="817" x2="925" y1="217" y2="217"/><line style="stroke: #A80036; stroke-width: 1.5;" x1="817" x2="925" y1="225" y2="225"/><ellipse cx="827" cy="236" fill="#84BE84" rx="3" ry="3" style="stroke: #038048; stroke-width: 1.0;"/><text fill="#000000" font-family="sans-serif" font-size="11" lengthAdjust="spacingAndGlyphs" textLength="58" x="836" y="239.6348">Mandarin()</text><ellipse cx="827" cy="248.9551" fill="#84BE84" rx="3" ry="3" style="stroke: #038048; stroke-width: 1.0;"/><text fill="#000000" font-family="sans-serif" font-size="11" lengthAdjust="spacingAndGlyphs" textLength="84" x="836" y="252.5898">String afficher()</text></a><!--MD5=[c8d3b862c3f9e1194f86d1b4dddfe3f4]
link Canard to ComportementVol--><path d="M491.8,65.92 C432.48,75.02 340.38,95.2 272,138 C251.94,150.56 234.12,170.13 220.99,187.11 " fill="none" id="Canard-&gt;ComportementVol" style="stroke: #A80036; stroke-width: 1.0;"/><polygon fill="#A80036" points="217.76,191.37,226.3791,186.6045,220.776,187.382,219.9984,181.7789,217.76,191.37" style="stroke: #A80036; stroke-width: 1.0;"/><text fill="#000000" font-family="sans-serif" font-size="13" lengthAdjust="spacingAndGlyphs" textLength="112" x="273" y="151.5684">comportementVol</text><text fill="#000000" font-family="sans-serif" font-size="13" lengthAdjust="spacingAndGlyphs" textLength="8" x="213.2075" y="180.6363">1</text><!--MD5=[9c3835228e25bd5b131766e0b615b467]
link Canard to ComportementCancan--><path d="M491.79,77.62 C461.13,90.11 425.51,109.57 403,138 C392.27,151.54 386.75,169.84 383.92,185.8 " fill="none" id="Canard-&gt;ComportementCancan" style="stroke: #A80036; stroke-width: 1.0;"/><polygon fill="#A80036" points="383.06,191.12,388.4503,182.8772,383.8611,186.1846,380.5537,181.5954,383.06,191.12" style="stroke: #A80036; stroke-width: 1.0;"/><text fill="#000000" font-family="sans-serif" font-size="13" lengthAdjust="spacingAndGlyphs" textLength="138" x="404" y="151.5684">comportementCancan</text><text fill="#000000" font-family="sans-serif" font-size="13" lengthAdjust="spacingAndGlyphs" textLength="8" x="374.6599" y="180.8091">1</text><!--MD5=[bfd6c37e7992d2ecfcd701d9418aae25]
reverse link Canard to Colvert--><path d="M551,128.26 C551,147.8 551,168.26 551,184.99 " fill="none" id="Canard&lt;-Colvert" style="stroke: #A80036; stroke-width: 1.0;"/><polygon fill="none" points="544,128.05,551,108.04,558,128.04,544,128.05" style="stroke: #A80036; stroke-width: 1.0;"/><!--MD5=[b65f4168212d694b12b75cc4ef292165]
reverse link ComportementVol to NePasVoler--><path d="M149.22,266.15 C129.34,283.74 106.84,303.64 88.81,319.59 " fill="none" id="ComportementVol&lt;-NePasVoler" style="stroke: #A80036; stroke-width: 1.0; stroke-dasharray: 7.0,7.0;"/><polygon fill="none" points="144.85,260.67,164.47,252.66,154.13,271.15,144.85,260.67" style="stroke: #A80036; stroke-width: 1.0;"/><!--MD5=[ad51a6d171e6672355113b44adc2b4d7]
reverse link Canard to CanardEnPlastique--><path d="M613.62,122.4 C634.6,143.65 657.26,166.58 675.43,184.99 " fill="none" id="Canard&lt;-CanardEnPlastique" style="stroke: #A80036; stroke-width: 1.0;"/><polygon fill="none" points="608.51,127.19,599.44,108.04,618.47,117.36,608.51,127.19" style="stroke: #A80036; stroke-width: 1.0;"/><!--MD5=[8f8e5d158b3ba2896dd2c50d04f57ece]
reverse link ComportementCancan to Cancan--><path d="M381,272.77 C381,288.6 381,305.62 381,319.59 " fill="none" id="ComportementCancan&lt;-Cancan" style="stroke: #A80036; stroke-width: 1.0; stroke-dasharray: 7.0,7.0;"/><polygon fill="none" points="374,272.66,381,252.66,388,272.66,374,272.66" style="stroke: #A80036; stroke-width: 1.0;"/><!--MD5=[e16669c69b47310314a81f43e06e62ba]
reverse link ComportementVol to VolerAvecDesAiles--><path d="M201.93,272.77 C203.19,288.6 204.53,305.62 205.64,319.59 " fill="none" id="ComportementVol&lt;-VolerAvecDesAiles" style="stroke: #A80036; stroke-width: 1.0; stroke-dasharray: 7.0,7.0;"/><polygon fill="none" points="194.94,273.15,200.34,252.66,208.9,272.04,194.94,273.15" style="stroke: #A80036; stroke-width: 1.0;"/><!--MD5=[47f6b827752a63e804fa76586bec03ea]
reverse link Canard to Mandarin--><path d="M627.73,107.85 C627.82,107.9 627.91,107.95 628,108 C700.95,147.48 723.02,149.54 798,185 C803.75,187.72 809.73,190.59 815.69,193.49 " fill="none" id="Canard&lt;-Mandarin" style="stroke: #A80036; stroke-width: 1.0;"/><polygon fill="none" points="624.09,113.83,610.19,97.84,631.03,101.68,624.09,113.83" style="stroke: #A80036; stroke-width: 1.0;"/><!--MD5=[0a4e7492bc0ba22a8ac962004885d804]
@startuml
abstract class Canard [[java:org.blagnac.cpoa.Canard]] {
	+String cancaner()
	+String nager()
	+{abstract}String afficher()
	+String voler()
}
class ComportementVol [[java:org.blagnac.cpoa.ComportementVol]] {
}
Canard - -> "1" ComportementVol : comportementVol
class ComportementCancan [[java:org.blagnac.cpoa.ComportementCancan]] {
}
Canard - -> "1" ComportementCancan : comportementCancan
class Colvert [[java:org.blagnac.cpoa.Colvert]] {
	+Colvert()
	+String afficher()
}
class Canard [[java:org.blagnac.cpoa.Canard]] {
}
Canard <|- - Colvert
class SuperCanard [[java:org.blagnac.cpoa.SuperCanard]] {
	+{static}void main(String[] args)
}
class NePasVoler [[java:org.blagnac.cpoa.NePasVoler]] {
	+String voler()
}
interface ComportementVol [[java:org.blagnac.cpoa.ComportementVol]] {
}
ComportementVol <|.. NePasVoler
interface ComportementCancan [[java:org.blagnac.cpoa.ComportementCancan]] {
	String cancaner()
}
interface ComportementVol [[java:org.blagnac.cpoa.ComportementVol]] {
	String voler()
}
class CanardEnPlastique [[java:org.blagnac.cpoa.CanardEnPlastique]] {
	+CanardEnPlastique()
	+String afficher()
}
class Canard [[java:org.blagnac.cpoa.Canard]] {
}
Canard <|- - CanardEnPlastique
class Cancan [[java:org.blagnac.cpoa.Cancan]] {
	+String cancaner()
}
interface ComportementCancan [[java:org.blagnac.cpoa.ComportementCancan]] {
}
ComportementCancan <|.. Cancan
class VolerAvecDesAiles [[java:org.blagnac.cpoa.VolerAvecDesAiles]] {
	+String voler()
}
interface ComportementVol [[java:org.blagnac.cpoa.ComportementVol]] {
}
ComportementVol <|.. VolerAvecDesAiles
class Mandarin [[java:org.blagnac.cpoa.Mandarin]] {
	+Mandarin()
	+String afficher()
}
class Canard [[java:org.blagnac.cpoa.Canard]] {
}
Canard <|- - Mandarin

@enduml

PlantUML version 1.2019.11(Sun Sep 22 12:02:15 CEST 2019)
(EPL source distribution)
Java Runtime: Java(TM) SE Runtime Environment
JVM: Java HotSpot(TM) 64-Bit Server VM
Java Version: 15+36-1562
Operating System: Mac OS X
Default Encoding: UTF-8
Language: fr
Country: FR
--></g></svg>