<?xml version="1.0" encoding="UTF-8" standalone="no"?><svg xmlns="http://www.w3.org/2000/svg" xmlns:xlink="http://www.w3.org/1999/xlink" contentScriptType="application/ecmascript" contentStyleType="text/css" height="347px" preserveAspectRatio="none" style="width:1317px;height:347px;" version="1.1" viewBox="0 0 1317 347" width="1317px" zoomAndPan="magnify"><defs><filter height="300%" id="fymaa9051ho1d" width="300%" x="-1" y="-1"><feGaussianBlur result="blurOut" stdDeviation="2.0"/><feColorMatrix in="blurOut" result="blurOut2" type="matrix" values="0 0 0 0 0 0 0 0 0 0 0 0 0 0 0 0 0 0 .4 0"/><feOffset dx="4.0" dy="4.0" in="blurOut2" result="blurOut3"/><feBlend in="SourceGraphic" in2="blurOut3" mode="normal"/></filter></defs><g><!--MD5=[4948b19035d8a4e4e4adc5a6baeb3f71]
cluster org.blagnac.cpoa.comportements.voler--><polygon fill="#FFFFFF" filter="url(#fymaa9051ho1d)" points="75,56.5,354,56.5,361,78.9883,364,78.9883,364,168.5,75,168.5,75,56.5" style="stroke: #000000; stroke-width: 1.5;"/><line style="stroke: #000000; stroke-width: 1.5;" x1="75" x2="361" y1="78.9883" y2="78.9883"/><text fill="#000000" font-family="sans-serif" font-size="14" font-weight="bold" lengthAdjust="spacingAndGlyphs" textLength="273" x="79" y="72.0352">org.blagnac.cpoa.comportements.voler</text><!--MD5=[a2547f1a5a3e736b9b38f592635a1a29]
cluster org.blagnac.cpoa.comportements.cancaner--><polygon fill="#FFFFFF" filter="url(#fymaa9051ho1d)" points="425,56.5,730,56.5,737,78.9883,740,78.9883,740,168.5,425,168.5,425,56.5" style="stroke: #000000; stroke-width: 1.5;"/><line style="stroke: #000000; stroke-width: 1.5;" x1="425" x2="737" y1="78.9883" y2="78.9883"/><text fill="#000000" font-family="sans-serif" font-size="14" font-weight="bold" lengthAdjust="spacingAndGlyphs" textLength="299" x="429" y="72.0352">org.blagnac.cpoa.comportements.cancaner</text><!--MD5=[ce3981a0c2375e5d9c0321e90d09f023]
cluster org.blagnac.cpoa.td1--><polygon fill="#FFFFFF" filter="url(#fymaa9051ho1d)" points="805,24,956,24,963,46.4883,1295,46.4883,1295,335,805,335,805,24" style="stroke: #000000; stroke-width: 1.5;"/><line style="stroke: #000000; stroke-width: 1.5;" x1="805" x2="963" y1="46.4883" y2="46.4883"/><text fill="#000000" font-family="sans-serif" font-size="14" font-weight="bold" lengthAdjust="spacingAndGlyphs" textLength="145" x="809" y="39.5352">org.blagnac.cpoa.td1</text><!--MD5=[c4598e9476a0a7fa4946fe89c402d84d]
cluster org.blagnac.cpoa.comportements.cancaner.impl--><polygon fill="#FFFFFF" filter="url(#fymaa9051ho1d)" points="430,216.5,771,216.5,778,238.9883,781,238.9883,781,328.5,430,328.5,430,216.5" style="stroke: #000000; stroke-width: 1.5;"/><line style="stroke: #000000; stroke-width: 1.5;" x1="430" x2="778" y1="238.9883" y2="238.9883"/><text fill="#000000" font-family="sans-serif" font-size="14" font-weight="bold" lengthAdjust="spacingAndGlyphs" textLength="335" x="434" y="232.0352">org.blagnac.cpoa.comportements.cancaner.impl</text><!--MD5=[a4e3855c7a0c29253e63f78d8af93e21]
cluster org.blagnac.cpoa.comportements.voler.impl--><polygon fill="#FFFFFF" filter="url(#fymaa9051ho1d)" points="22,216.5,337,216.5,344,238.9883,347,238.9883,347,328.5,22,328.5,22,216.5" style="stroke: #000000; stroke-width: 1.5;"/><line style="stroke: #000000; stroke-width: 1.5;" x1="22" x2="344" y1="238.9883" y2="238.9883"/><text fill="#000000" font-family="sans-serif" font-size="14" font-weight="bold" lengthAdjust="spacingAndGlyphs" textLength="309" x="26" y="232.0352">org.blagnac.cpoa.comportements.voler.impl</text><!--MD5=[4a051ddfd7b415cd11c793f41deb1f2f]
class ComportementVol--><a href="java:org.blagnac.cpoa.comportements.voler.ComportementVol" target="_top" title="java:org.blagnac.cpoa.comportements.voler.ComportementVol" xlink:actuate="onRequest" xlink:href="java:org.blagnac.cpoa.comportements.voler.ComportementVol" xlink:show="new" xlink:title="java:org.blagnac.cpoa.comportements.voler.ComportementVol" xlink:type="simple"><rect fill="#FEFECE" filter="url(#fymaa9051ho1d)" height="60.9551" id="ComportementVol" style="stroke: #A80036; stroke-width: 1.5;" width="136" x="148" y="91.5"/><ellipse cx="163" cy="107.5" fill="#B4A7E5" rx="11" ry="11" style="stroke: #A80036; stroke-width: 1.0;"/><path d="M159.4277,103.7651 L159.4277,101.6069 L166.8071,101.6069 L166.8071,103.7651 L164.3418,103.7651 L164.3418,111.8418 L166.8071,111.8418 L166.8071,114 L159.4277,114 L159.4277,111.8418 L161.8931,111.8418 L161.8931,103.7651 Z "/><text fill="#000000" font-family="sans-serif" font-size="12" font-style="italic" lengthAdjust="spacingAndGlyphs" textLength="104" x="177" y="112.0352">ComportementVol</text><line style="stroke: #A80036; stroke-width: 1.5;" x1="149" x2="283" y1="123.5" y2="123.5"/><line style="stroke: #A80036; stroke-width: 1.5;" x1="149" x2="283" y1="131.5" y2="131.5"/><text fill="#000000" font-family="sans-serif" font-size="11" lengthAdjust="spacingAndGlyphs" textLength="70" x="154" y="146.1348">String voler()</text></a><!--MD5=[aca95363a2580d34b7fffd91ec4191e8]
class ComportementCancan--><a href="java:org.blagnac.cpoa.comportements.cancaner.ComportementCancan" target="_top" title="java:org.blagnac.cpoa.comportements.cancaner.ComportementCancan" xlink:actuate="onRequest" xlink:href="java:org.blagnac.cpoa.comportements.cancaner.ComportementCancan" xlink:show="new" xlink:title="java:org.blagnac.cpoa.comportements.cancaner.ComportementCancan" xlink:type="simple"><rect fill="#FEFECE" filter="url(#fymaa9051ho1d)" height="60.9551" id="ComportementCancan" style="stroke: #A80036; stroke-width: 1.5;" width="160" x="459" y="91.5"/><ellipse cx="474" cy="107.5" fill="#B4A7E5" rx="11" ry="11" style="stroke: #A80036; stroke-width: 1.0;"/><path d="M470.4277,103.7651 L470.4277,101.6069 L477.8071,101.6069 L477.8071,103.7651 L475.3418,103.7651 L475.3418,111.8418 L477.8071,111.8418 L477.8071,114 L470.4277,114 L470.4277,111.8418 L472.8931,111.8418 L472.8931,103.7651 Z "/><text fill="#000000" font-family="sans-serif" font-size="12" font-style="italic" lengthAdjust="spacingAndGlyphs" textLength="128" x="488" y="112.0352">ComportementCancan</text><line style="stroke: #A80036; stroke-width: 1.5;" x1="460" x2="618" y1="123.5" y2="123.5"/><line style="stroke: #A80036; stroke-width: 1.5;" x1="460" x2="618" y1="131.5" y2="131.5"/><text fill="#000000" font-family="sans-serif" font-size="11" lengthAdjust="spacingAndGlyphs" textLength="92" x="465" y="146.1348">String cancaner()</text></a><!--MD5=[ed0c63156f1c728f406b106d88d9af45]
class Canard--><a href="java:org.blagnac.cpoa.td1.Canard" target="_top" title="java:org.blagnac.cpoa.td1.Canard" xlink:actuate="onRequest" xlink:href="java:org.blagnac.cpoa.td1.Canard" xlink:show="new" xlink:title="java:org.blagnac.cpoa.td1.Canard" xlink:type="simple"><rect fill="#FEFECE" filter="url(#fymaa9051ho1d)" height="125.7305" id="Canard" style="stroke: #A80036; stroke-width: 1.5;" width="269" x="1009.5" y="59"/><ellipse cx="1118.75" cy="75" fill="#ADD1B2" rx="11" ry="11" style="stroke: #A80036; stroke-width: 1.0;"/><path d="M1121.2231,81.1431 Q1120.6421,81.4419 1120.0029,81.5913 Q1119.3638,81.7407 1118.6582,81.7407 Q1116.1514,81.7407 1114.8315,80.0889 Q1113.5117,78.437 1113.5117,75.3159 Q1113.5117,72.1865 1114.8315,70.5347 Q1116.1514,68.8828 1118.6582,68.8828 Q1119.3638,68.8828 1120.0112,69.0322 Q1120.6587,69.1816 1121.2231,69.4805 L1121.2231,72.2031 Q1120.5923,71.6221 1119.9988,71.3523 Q1119.4053,71.0825 1118.7744,71.0825 Q1117.4297,71.0825 1116.7449,72.1492 Q1116.0601,73.2158 1116.0601,75.3159 Q1116.0601,77.4077 1116.7449,78.4744 Q1117.4297,79.541 1118.7744,79.541 Q1119.4053,79.541 1119.9988,79.2712 Q1120.5923,79.0015 1121.2231,78.4204 Z "/><text fill="#000000" font-family="sans-serif" font-size="12" lengthAdjust="spacingAndGlyphs" textLength="42" x="1139.25" y="79.5352">Canard</text><line style="stroke: #A80036; stroke-width: 1.5;" x1="1010.5" x2="1277.5" y1="91" y2="91"/><polygon fill="none" points="1020.5,97,1024.5,101,1020.5,105,1016.5,101" style="stroke: #B38D22; stroke-width: 1.0;"/><text fill="#000000" font-family="sans-serif" font-size="11" lengthAdjust="spacingAndGlyphs" textLength="197" x="1029.5" y="105.6348">ComportementVol comportementVol</text><polygon fill="none" points="1020.5,109.9551,1024.5,113.9551,1020.5,117.9551,1016.5,113.9551" style="stroke: #B38D22; stroke-width: 1.0;"/><text fill="#000000" font-family="sans-serif" font-size="11" lengthAdjust="spacingAndGlyphs" textLength="243" x="1029.5" y="118.5898">ComportementCancan comportementCancan</text><line style="stroke: #A80036; stroke-width: 1.5;" x1="1010.5" x2="1277.5" y1="124.9102" y2="124.9102"/><ellipse cx="1020.5" cy="135.9102" fill="#84BE84" rx="3" ry="3" style="stroke: #038048; stroke-width: 1.0;"/><text fill="#000000" font-family="sans-serif" font-size="11" lengthAdjust="spacingAndGlyphs" textLength="92" x="1029.5" y="139.5449">String cancaner()</text><ellipse cx="1020.5" cy="148.8652" fill="#84BE84" rx="3" ry="3" style="stroke: #038048; stroke-width: 1.0;"/><text fill="#000000" font-family="sans-serif" font-size="11" lengthAdjust="spacingAndGlyphs" textLength="74" x="1029.5" y="152.5">String nager()</text><ellipse cx="1020.5" cy="161.8203" fill="#84BE84" rx="3" ry="3" style="stroke: #038048; stroke-width: 1.0;"/><text fill="#000000" font-family="sans-serif" font-size="11" font-style="italic" lengthAdjust="spacingAndGlyphs" textLength="84" x="1029.5" y="165.4551">String afficher()</text><ellipse cx="1020.5" cy="174.7754" fill="#84BE84" rx="3" ry="3" style="stroke: #038048; stroke-width: 1.0;"/><text fill="#000000" font-family="sans-serif" font-size="11" lengthAdjust="spacingAndGlyphs" textLength="70" x="1029.5" y="178.4102">String voler()</text></a><!--MD5=[6aadc5b7719e054ab02810ef317c56ff]
class Colvert--><a href="java:org.blagnac.cpoa.td1.Colvert" target="_top" title="java:org.blagnac.cpoa.td1.Colvert" xlink:actuate="onRequest" xlink:href="java:org.blagnac.cpoa.td1.Colvert" xlink:show="new" xlink:title="java:org.blagnac.cpoa.td1.Colvert" xlink:type="simple"><rect fill="#FEFECE" filter="url(#fymaa9051ho1d)" height="73.9102" id="Colvert" style="stroke: #A80036; stroke-width: 1.5;" width="110" x="849" y="245"/><ellipse cx="881.1" cy="261" fill="#ADD1B2" rx="11" ry="11" style="stroke: #A80036; stroke-width: 1.0;"/><path d="M883.5731,267.1431 Q882.9921,267.4419 882.3529,267.5913 Q881.7138,267.7407 881.0082,267.7407 Q878.5014,267.7407 877.1815,266.0889 Q875.8617,264.437 875.8617,261.3159 Q875.8617,258.1865 877.1815,256.5347 Q878.5014,254.8828 881.0082,254.8828 Q881.7138,254.8828 882.3612,255.0322 Q883.0087,255.1816 883.5731,255.4805 L883.5731,258.2031 Q882.9423,257.6221 882.3488,257.3523 Q881.7553,257.0825 881.1244,257.0825 Q879.7797,257.0825 879.0949,258.1492 Q878.4101,259.2158 878.4101,261.3159 Q878.4101,263.4077 879.0949,264.4744 Q879.7797,265.541 881.1244,265.541 Q881.7553,265.541 882.3488,265.2712 Q882.9423,265.0015 883.5731,264.4204 Z "/><text fill="#000000" font-family="sans-serif" font-size="12" lengthAdjust="spacingAndGlyphs" textLength="40" x="898.9" y="265.5352">Colvert</text><line style="stroke: #A80036; stroke-width: 1.5;" x1="850" x2="958" y1="277" y2="277"/><line style="stroke: #A80036; stroke-width: 1.5;" x1="850" x2="958" y1="285" y2="285"/><ellipse cx="860" cy="296" fill="#84BE84" rx="3" ry="3" style="stroke: #038048; stroke-width: 1.0;"/><text fill="#000000" font-family="sans-serif" font-size="11" lengthAdjust="spacingAndGlyphs" textLength="47" x="869" y="299.6348">Colvert()</text><ellipse cx="860" cy="308.9551" fill="#84BE84" rx="3" ry="3" style="stroke: #038048; stroke-width: 1.0;"/><text fill="#000000" font-family="sans-serif" font-size="11" lengthAdjust="spacingAndGlyphs" textLength="84" x="869" y="312.5898">String afficher()</text></a><!--MD5=[2efcf89217524501dea0389016388298]
class SuperCanard--><a href="java:org.blagnac.cpoa.td1.SuperCanard" target="_top" title="java:org.blagnac.cpoa.td1.SuperCanard" xlink:actuate="onRequest" xlink:href="java:org.blagnac.cpoa.td1.SuperCanard" xlink:show="new" xlink:title="java:org.blagnac.cpoa.td1.SuperCanard" xlink:type="simple"><rect fill="#FEFECE" filter="url(#fymaa9051ho1d)" height="60.9551" id="SuperCanard" style="stroke: #A80036; stroke-width: 1.5;" width="153" x="821.5" y="91.5"/><ellipse cx="857.2" cy="107.5" fill="#ADD1B2" rx="11" ry="11" style="stroke: #A80036; stroke-width: 1.0;"/><path d="M859.6731,113.6431 Q859.0921,113.9419 858.4529,114.0913 Q857.8138,114.2407 857.1082,114.2407 Q854.6014,114.2407 853.2815,112.5889 Q851.9617,110.937 851.9617,107.8159 Q851.9617,104.6865 853.2815,103.0347 Q854.6014,101.3828 857.1082,101.3828 Q857.8138,101.3828 858.4612,101.5322 Q859.1087,101.6816 859.6731,101.9805 L859.6731,104.7031 Q859.0423,104.1221 858.4488,103.8523 Q857.8553,103.5825 857.2244,103.5825 Q855.8797,103.5825 855.1949,104.6492 Q854.5101,105.7158 854.5101,107.8159 Q854.5101,109.9077 855.1949,110.9744 Q855.8797,112.041 857.2244,112.041 Q857.8553,112.041 858.4488,111.7712 Q859.0423,111.5015 859.6731,110.9204 Z "/><text fill="#000000" font-family="sans-serif" font-size="12" lengthAdjust="spacingAndGlyphs" textLength="75" x="875.8" y="112.0352">SuperCanard</text><line style="stroke: #A80036; stroke-width: 1.5;" x1="822.5" x2="973.5" y1="123.5" y2="123.5"/><line style="stroke: #A80036; stroke-width: 1.5;" x1="822.5" x2="973.5" y1="131.5" y2="131.5"/><ellipse cx="832.5" cy="142.5" fill="#84BE84" rx="3" ry="3" style="stroke: #038048; stroke-width: 1.0;"/><text fill="#000000" font-family="sans-serif" font-size="11" lengthAdjust="spacingAndGlyphs" text-decoration="underline" textLength="127" x="841.5" y="146.1348">void main(String[] args)</text></a><!--MD5=[640624e924bb6500302b5140e4a7de10]
class CanardEnPlastique--><a href="java:org.blagnac.cpoa.td1.CanardEnPlastique" target="_top" title="java:org.blagnac.cpoa.td1.CanardEnPlastique" xlink:actuate="onRequest" xlink:href="java:org.blagnac.cpoa.td1.CanardEnPlastique" xlink:show="new" xlink:title="java:org.blagnac.cpoa.td1.CanardEnPlastique" xlink:type="simple"><rect fill="#FEFECE" filter="url(#fymaa9051ho1d)" height="73.9102" id="CanardEnPlastique" style="stroke: #A80036; stroke-width: 1.5;" width="140" x="994" y="245"/><ellipse cx="1009" cy="261" fill="#ADD1B2" rx="11" ry="11" style="stroke: #A80036; stroke-width: 1.0;"/><path d="M1011.4731,267.1431 Q1010.8921,267.4419 1010.2529,267.5913 Q1009.6138,267.7407 1008.9082,267.7407 Q1006.4014,267.7407 1005.0815,266.0889 Q1003.7617,264.437 1003.7617,261.3159 Q1003.7617,258.1865 1005.0815,256.5347 Q1006.4014,254.8828 1008.9082,254.8828 Q1009.6138,254.8828 1010.2612,255.0322 Q1010.9087,255.1816 1011.4731,255.4805 L1011.4731,258.2031 Q1010.8423,257.6221 1010.2488,257.3523 Q1009.6553,257.0825 1009.0244,257.0825 Q1007.6797,257.0825 1006.9949,258.1492 Q1006.3101,259.2158 1006.3101,261.3159 Q1006.3101,263.4077 1006.9949,264.4744 Q1007.6797,265.541 1009.0244,265.541 Q1009.6553,265.541 1010.2488,265.2712 Q1010.8423,265.0015 1011.4731,264.4204 Z "/><text fill="#000000" font-family="sans-serif" font-size="12" lengthAdjust="spacingAndGlyphs" textLength="108" x="1023" y="265.5352">CanardEnPlastique</text><line style="stroke: #A80036; stroke-width: 1.5;" x1="995" x2="1133" y1="277" y2="277"/><line style="stroke: #A80036; stroke-width: 1.5;" x1="995" x2="1133" y1="285" y2="285"/><ellipse cx="1005" cy="296" fill="#84BE84" rx="3" ry="3" style="stroke: #038048; stroke-width: 1.0;"/><text fill="#000000" font-family="sans-serif" font-size="11" lengthAdjust="spacingAndGlyphs" textLength="108" x="1014" y="299.6348">CanardEnPlastique()</text><ellipse cx="1005" cy="308.9551" fill="#84BE84" rx="3" ry="3" style="stroke: #038048; stroke-width: 1.0;"/><text fill="#000000" font-family="sans-serif" font-size="11" lengthAdjust="spacingAndGlyphs" textLength="84" x="1014" y="312.5898">String afficher()</text></a><!--MD5=[e551c43ddeaca69aba01c3c259800a34]
class Mandarin--><a href="java:org.blagnac.cpoa.td1.Mandarin" target="_top" title="java:org.blagnac.cpoa.td1.Mandarin" xlink:actuate="onRequest" xlink:href="java:org.blagnac.cpoa.td1.Mandarin" xlink:show="new" xlink:title="java:org.blagnac.cpoa.td1.Mandarin" xlink:type="simple"><rect fill="#FEFECE" filter="url(#fymaa9051ho1d)" height="73.9102" id="Mandarin" style="stroke: #A80036; stroke-width: 1.5;" width="110" x="1169" y="245"/><ellipse cx="1194.8" cy="261" fill="#ADD1B2" rx="11" ry="11" style="stroke: #A80036; stroke-width: 1.0;"/><path d="M1197.2731,267.1431 Q1196.6921,267.4419 1196.0529,267.5913 Q1195.4138,267.7407 1194.7082,267.7407 Q1192.2014,267.7407 1190.8815,266.0889 Q1189.5617,264.437 1189.5617,261.3159 Q1189.5617,258.1865 1190.8815,256.5347 Q1192.2014,254.8828 1194.7082,254.8828 Q1195.4138,254.8828 1196.0612,255.0322 Q1196.7087,255.1816 1197.2731,255.4805 L1197.2731,258.2031 Q1196.6423,257.6221 1196.0488,257.3523 Q1195.4553,257.0825 1194.8244,257.0825 Q1193.4797,257.0825 1192.7949,258.1492 Q1192.1101,259.2158 1192.1101,261.3159 Q1192.1101,263.4077 1192.7949,264.4744 Q1193.4797,265.541 1194.8244,265.541 Q1195.4553,265.541 1196.0488,265.2712 Q1196.6423,265.0015 1197.2731,264.4204 Z "/><text fill="#000000" font-family="sans-serif" font-size="12" lengthAdjust="spacingAndGlyphs" textLength="54" x="1211.2" y="265.5352">Mandarin</text><line style="stroke: #A80036; stroke-width: 1.5;" x1="1170" x2="1278" y1="277" y2="277"/><line style="stroke: #A80036; stroke-width: 1.5;" x1="1170" x2="1278" y1="285" y2="285"/><ellipse cx="1180" cy="296" fill="#84BE84" rx="3" ry="3" style="stroke: #038048; stroke-width: 1.0;"/><text fill="#000000" font-family="sans-serif" font-size="11" lengthAdjust="spacingAndGlyphs" textLength="58" x="1189" y="299.6348">Mandarin()</text><ellipse cx="1180" cy="308.9551" fill="#84BE84" rx="3" ry="3" style="stroke: #038048; stroke-width: 1.0;"/><text fill="#000000" font-family="sans-serif" font-size="11" lengthAdjust="spacingAndGlyphs" textLength="84" x="1189" y="312.5898">String afficher()</text></a><!--MD5=[23ec1d3b97f5d62400be78cce871772b]
class Cancan--><a href="java:org.blagnac.cpoa.comportements.cancaner.impl.Cancan" target="_top" title="java:org.blagnac.cpoa.comportements.cancaner.impl.Cancan" xlink:actuate="onRequest" xlink:href="java:org.blagnac.cpoa.comportements.cancaner.impl.Cancan" xlink:show="new" xlink:title="java:org.blagnac.cpoa.comportements.cancaner.impl.Cancan" xlink:type="simple"><rect fill="#FEFECE" filter="url(#fymaa9051ho1d)" height="60.9551" id="Cancan" style="stroke: #A80036; stroke-width: 1.5;" width="118" x="480" y="251.5"/><ellipse cx="514.8" cy="267.5" fill="#ADD1B2" rx="11" ry="11" style="stroke: #A80036; stroke-width: 1.0;"/><path d="M517.2731,273.6431 Q516.6921,273.9419 516.0529,274.0913 Q515.4138,274.2407 514.7082,274.2407 Q512.2014,274.2407 510.8815,272.5889 Q509.5617,270.937 509.5617,267.8159 Q509.5617,264.6865 510.8815,263.0347 Q512.2014,261.3828 514.7082,261.3828 Q515.4138,261.3828 516.0612,261.5322 Q516.7087,261.6816 517.2731,261.9805 L517.2731,264.7031 Q516.6423,264.1221 516.0488,263.8523 Q515.4553,263.5825 514.8244,263.5825 Q513.4797,263.5825 512.7949,264.6492 Q512.1101,265.7158 512.1101,267.8159 Q512.1101,269.9077 512.7949,270.9744 Q513.4797,272.041 514.8244,272.041 Q515.4553,272.041 516.0488,271.7712 Q516.6423,271.5015 517.2731,270.9204 Z "/><text fill="#000000" font-family="sans-serif" font-size="12" lengthAdjust="spacingAndGlyphs" textLength="42" x="533.2" y="272.0352">Cancan</text><line style="stroke: #A80036; stroke-width: 1.5;" x1="481" x2="597" y1="283.5" y2="283.5"/><line style="stroke: #A80036; stroke-width: 1.5;" x1="481" x2="597" y1="291.5" y2="291.5"/><ellipse cx="491" cy="302.5" fill="#84BE84" rx="3" ry="3" style="stroke: #038048; stroke-width: 1.0;"/><text fill="#000000" font-family="sans-serif" font-size="11" lengthAdjust="spacingAndGlyphs" textLength="92" x="500" y="306.1348">String cancaner()</text></a><!--MD5=[edbc55225fd321a82d696a7e6acfa707]
class VolerAvecDesAiles--><a href="java:org.blagnac.cpoa.comportements.voler.impl.VolerAvecDesAiles" target="_top" title="java:org.blagnac.cpoa.comportements.voler.impl.VolerAvecDesAiles" xlink:actuate="onRequest" xlink:href="java:org.blagnac.cpoa.comportements.voler.impl.VolerAvecDesAiles" xlink:show="new" xlink:title="java:org.blagnac.cpoa.comportements.voler.impl.VolerAvecDesAiles" xlink:type="simple"><rect fill="#FEFECE" filter="url(#fymaa9051ho1d)" height="60.9551" id="VolerAvecDesAiles" style="stroke: #A80036; stroke-width: 1.5;" width="138" x="182" y="251.5"/><ellipse cx="197" cy="267.5" fill="#ADD1B2" rx="11" ry="11" style="stroke: #A80036; stroke-width: 1.0;"/><path d="M199.4731,273.6431 Q198.8921,273.9419 198.2529,274.0913 Q197.6138,274.2407 196.9082,274.2407 Q194.4014,274.2407 193.0815,272.5889 Q191.7617,270.937 191.7617,267.8159 Q191.7617,264.6865 193.0815,263.0347 Q194.4014,261.3828 196.9082,261.3828 Q197.6138,261.3828 198.2612,261.5322 Q198.9087,261.6816 199.4731,261.9805 L199.4731,264.7031 Q198.8423,264.1221 198.2488,263.8523 Q197.6553,263.5825 197.0244,263.5825 Q195.6797,263.5825 194.9949,264.6492 Q194.3101,265.7158 194.3101,267.8159 Q194.3101,269.9077 194.9949,270.9744 Q195.6797,272.041 197.0244,272.041 Q197.6553,272.041 198.2488,271.7712 Q198.8423,271.5015 199.4731,270.9204 Z "/><text fill="#000000" font-family="sans-serif" font-size="12" lengthAdjust="spacingAndGlyphs" textLength="106" x="211" y="272.0352">VolerAvecDesAiles</text><line style="stroke: #A80036; stroke-width: 1.5;" x1="183" x2="319" y1="283.5" y2="283.5"/><line style="stroke: #A80036; stroke-width: 1.5;" x1="183" x2="319" y1="291.5" y2="291.5"/><ellipse cx="193" cy="302.5" fill="#84BE84" rx="3" ry="3" style="stroke: #038048; stroke-width: 1.0;"/><text fill="#000000" font-family="sans-serif" font-size="11" lengthAdjust="spacingAndGlyphs" textLength="70" x="202" y="306.1348">String voler()</text></a><!--MD5=[f5a6a62b3b1e0fe4d3183fb2d6526152]
class NePasVoler--><a href="java:org.blagnac.cpoa.comportements.voler.impl.NePasVoler" target="_top" title="java:org.blagnac.cpoa.comportements.voler.impl.NePasVoler" xlink:actuate="onRequest" xlink:href="java:org.blagnac.cpoa.comportements.voler.impl.NePasVoler" xlink:show="new" xlink:title="java:org.blagnac.cpoa.comportements.voler.impl.NePasVoler" xlink:type="simple"><rect fill="#FEFECE" filter="url(#fymaa9051ho1d)" height="60.9551" id="NePasVoler" style="stroke: #A80036; stroke-width: 1.5;" width="98" x="49" y="251.5"/><ellipse cx="64" cy="267.5" fill="#ADD1B2" rx="11" ry="11" style="stroke: #A80036; stroke-width: 1.0;"/><path d="M66.4731,273.6431 Q65.8921,273.9419 65.2529,274.0913 Q64.6138,274.2407 63.9082,274.2407 Q61.4014,274.2407 60.0815,272.5889 Q58.7617,270.937 58.7617,267.8159 Q58.7617,264.6865 60.0815,263.0347 Q61.4014,261.3828 63.9082,261.3828 Q64.6138,261.3828 65.2612,261.5322 Q65.9087,261.6816 66.4731,261.9805 L66.4731,264.7031 Q65.8423,264.1221 65.2488,263.8523 Q64.6553,263.5825 64.0244,263.5825 Q62.6797,263.5825 61.9949,264.6492 Q61.3101,265.7158 61.3101,267.8159 Q61.3101,269.9077 61.9949,270.9744 Q62.6797,272.041 64.0244,272.041 Q64.6553,272.041 65.2488,271.7712 Q65.8423,271.5015 66.4731,270.9204 Z "/><text fill="#000000" font-family="sans-serif" font-size="12" lengthAdjust="spacingAndGlyphs" textLength="66" x="78" y="272.0352">NePasVoler</text><line style="stroke: #A80036; stroke-width: 1.5;" x1="50" x2="146" y1="283.5" y2="283.5"/><line style="stroke: #A80036; stroke-width: 1.5;" x1="50" x2="146" y1="291.5" y2="291.5"/><ellipse cx="60" cy="302.5" fill="#84BE84" rx="3" ry="3" style="stroke: #038048; stroke-width: 1.0;"/><text fill="#000000" font-family="sans-serif" font-size="11" lengthAdjust="spacingAndGlyphs" textLength="70" x="69" y="306.1348">String voler()</text></a><!--MD5=[bfd6c37e7992d2ecfcd701d9418aae25]
reverse link Canard to Colvert--><path d="M995.52,195.85 C989.15,199.96 982.95,204.18 977,208.5 C962.54,218.99 948.24,232.35 936.18,244.73 " fill="none" id="Canard&lt;-Colvert" style="stroke: #A80036; stroke-width: 1.0;"/><polygon fill="none" points="991.97,189.81,1012.66,185.25,999.33,201.72,991.97,189.81" style="stroke: #A80036; stroke-width: 1.0;"/><!--MD5=[ad51a6d171e6672355113b44adc2b4d7]
reverse link Canard to CanardEnPlastique--><path d="M1103.15,203.68 C1095.82,218.15 1088.53,232.55 1082.26,244.93 " fill="none" id="Canard&lt;-CanardEnPlastique" style="stroke: #A80036; stroke-width: 1.0;"/><polygon fill="none" points="1097.1,200.13,1112.38,185.45,1109.59,206.45,1097.1,200.13" style="stroke: #A80036; stroke-width: 1.0;"/><!--MD5=[47f6b827752a63e804fa76586bec03ea]
reverse link Canard to Mandarin--><path d="M1184.85,203.68 C1192.18,218.15 1199.47,232.55 1205.74,244.93 " fill="none" id="Canard&lt;-Mandarin" style="stroke: #A80036; stroke-width: 1.0;"/><polygon fill="none" points="1178.41,206.45,1175.62,185.45,1190.9,200.13,1178.41,206.45" style="stroke: #A80036; stroke-width: 1.0;"/><!--MD5=[8f8e5d158b3ba2896dd2c50d04f57ece]
reverse link ComportementCancan to Cancan--><path d="M539,172.97 C539,198.78 539,229.38 539,251.41 " fill="none" id="ComportementCancan&lt;-Cancan" style="stroke: #A80036; stroke-width: 1.0; stroke-dasharray: 7.0,7.0;"/><polygon fill="none" points="532,172.72,539,152.72,546,172.72,532,172.72" style="stroke: #A80036; stroke-width: 1.0;"/><!--MD5=[e16669c69b47310314a81f43e06e62ba]
reverse link ComportementVol to VolerAvecDesAiles--><path d="M226.98,172.59 C232.72,198.47 239.54,229.27 244.45,251.41 " fill="none" id="ComportementVol&lt;-VolerAvecDesAiles" style="stroke: #A80036; stroke-width: 1.0; stroke-dasharray: 7.0,7.0;"/><polygon fill="none" points="220.07,173.76,222.58,152.72,233.74,170.73,220.07,173.76" style="stroke: #A80036; stroke-width: 1.0;"/><!--MD5=[b65f4168212d694b12b75cc4ef292165]
reverse link ComportementVol to NePasVoler--><path d="M181.82,168.76 C161.94,195.38 137.46,228.17 120.1,251.41 " fill="none" id="ComportementVol&lt;-NePasVoler" style="stroke: #A80036; stroke-width: 1.0; stroke-dasharray: 7.0,7.0;"/><polygon fill="none" points="176.23,164.55,193.81,152.72,187.45,172.93,176.23,164.55" style="stroke: #A80036; stroke-width: 1.0;"/><!--MD5=[fc9ef1ffd5b4b705f6252f04ae68260a]
@startuml
package org.blagnac.cpoa.comportements.voler <<Folder>> {
interface ComportementVol [[java:org.blagnac.cpoa.comportements.voler.ComportementVol]] {
	String voler()
}

}
package org.blagnac.cpoa.comportements.cancaner <<Folder>> {
interface ComportementCancan [[java:org.blagnac.cpoa.comportements.cancaner.ComportementCancan]] {
	String cancaner()
}

}
package org.blagnac.cpoa.td1 <<Folder>> {
abstract class Canard [[java:org.blagnac.cpoa.td1.Canard]] {
	#ComportementVol comportementVol
	#ComportementCancan comportementCancan
	+String cancaner()
	+String nager()
	+{abstract}String afficher()
	+String voler()
}
class Colvert [[java:org.blagnac.cpoa.td1.Colvert]] {
	+Colvert()
	+String afficher()
}
class Canard [[java:org.blagnac.cpoa.td1.Canard]] {
}
Canard <|- - Colvert
class SuperCanard [[java:org.blagnac.cpoa.td1.SuperCanard]] {
	+{static}void main(String[] args)
}
class CanardEnPlastique [[java:org.blagnac.cpoa.td1.CanardEnPlastique]] {
	+CanardEnPlastique()
	+String afficher()
}
class Canard [[java:org.blagnac.cpoa.td1.Canard]] {
}
Canard <|- - CanardEnPlastique
class Mandarin [[java:org.blagnac.cpoa.td1.Mandarin]] {
	+Mandarin()
	+String afficher()
}
class Canard [[java:org.blagnac.cpoa.td1.Canard]] {
}
Canard <|- - Mandarin

}
package org.blagnac.cpoa.comportements.cancaner.impl <<Folder>> {
class Cancan [[java:org.blagnac.cpoa.comportements.cancaner.impl.Cancan]] {
	+String cancaner()
}
interface ComportementCancan [[java:org.blagnac.cpoa.comportements.cancaner.ComportementCancan]] {
}
ComportementCancan <|.. Cancan

}
package org.blagnac.cpoa.comportements.voler.impl <<Folder>> {
class VolerAvecDesAiles [[java:org.blagnac.cpoa.comportements.voler.impl.VolerAvecDesAiles]] {
	+String voler()
}
interface ComportementVol [[java:org.blagnac.cpoa.comportements.voler.ComportementVol]] {
}
ComportementVol <|.. VolerAvecDesAiles
class NePasVoler [[java:org.blagnac.cpoa.comportements.voler.impl.NePasVoler]] {
	+String voler()
}
interface ComportementVol [[java:org.blagnac.cpoa.comportements.voler.ComportementVol]] {
}
ComportementVol <|.. NePasVoler

}

@enduml

PlantUML version 1.2019.11(Sun Sep 22 12:02:15 CEST 2019)
(EPL source distribution)
Java Runtime: Java(TM) SE Runtime Environment
JVM: Java HotSpot(TM) 64-Bit Server VM
Java Version: 15+36-1562
Operating System: Mac OS X
Default Encoding: UTF-8
Language: fr
Country: FR
--></g></svg>